/* XPM */
static char * mini_giant_logo_xpm[] = {
"39 51 188 2",
"  	c None",
". 	c #FFFFFF",
"+ 	c #F0F0F0",
"@ 	c #8B8B8B",
"# 	c #3D3D3D",
"$ 	c #1A1A1A",
"% 	c #121212",
"& 	c #2D2D2D",
"* 	c #727272",
"= 	c #D7D7D7",
"- 	c #ABABAB",
"; 	c #131313",
"> 	c #000000",
", 	c #060606",
"' 	c #787878",
") 	c #FAFAFA",
"! 	c #9F9F9F",
"~ 	c #030303",
"{ 	c #5F5F5F",
"] 	c #FCFCFC",
"^ 	c #D1D1D1",
"/ 	c #090909",
"( 	c #010101",
"_ 	c #919191",
": 	c #4D4D4D",
"< 	c #171717",
"[ 	c #EAEAEA",
"} 	c #0B0B0B",
"| 	c #AFAFAF",
"1 	c #C1C1C1",
"2 	c #7A7A7A",
"3 	c #B1B1B1",
"4 	c #6D6D6D",
"5 	c #C7C7C7",
"6 	c #808080",
"7 	c #F2F2F2",
"8 	c #101010",
"9 	c #BABABA",
"0 	c #626262",
"a 	c #252525",
"b 	c #F8F8F8",
"c 	c #E2E2E2",
"d 	c #141414",
"e 	c #020202",
"f 	c #BDBDBD",
"g 	c #0E0E0E",
"h 	c #838383",
"i 	c #FEFEFE",
"j 	c #CDCDCD",
"k 	c #353535",
"l 	c #181818",
"m 	c #A4A4A4",
"n 	c #323232",
"o 	c #E6E6E6",
"p 	c #F6F6F6",
"q 	c #BFBFBF",
"r 	c #6A6A6A",
"s 	c #656565",
"t 	c #343434",
"u 	c #666666",
"v 	c #4E4E4E",
"w 	c #050505",
"x 	c #111111",
"y 	c #8C8C8C",
"z 	c #6F6F6F",
"A 	c #464646",
"B 	c #969696",
"C 	c #292929",
"D 	c #888888",
"E 	c #404040",
"F 	c #C8C8C8",
"G 	c #989898",
"H 	c #A0A0A0",
"I 	c #0C0C0C",
"J 	c #C4C4C4",
"K 	c #959595",
"L 	c #3C3C3C",
"M 	c #FDFDFD",
"N 	c #EBEBEB",
"O 	c #0D0D0D",
"P 	c #9B9B9B",
"Q 	c #747474",
"R 	c #E5E5E5",
"S 	c #333333",
"T 	c #686868",
"U 	c #0F0F0F",
"V 	c #8A8A8A",
"W 	c #C2C2C2",
"X 	c #999999",
"Y 	c #B5B5B5",
"Z 	c #ECECEC",
"` 	c #555555",
" .	c #F5F5F5",
"..	c #383838",
"+.	c #818181",
"@.	c #242424",
"#.	c #767676",
"$.	c #080808",
"%.	c #E9E9E9",
"&.	c #6C6C6C",
"*.	c #EFEFEF",
"=.	c #9E9E9E",
"-.	c #A5A5A5",
";.	c #5B5B5B",
">.	c #525252",
",.	c #8F8F8F",
"'.	c #B3B3B3",
").	c #C9C9C9",
"!.	c #5A5A5A",
"~.	c #222222",
"{.	c #D9D9D9",
"].	c #D2D2D2",
"^.	c #9A9A9A",
"/.	c #FBFBFB",
"(.	c #F1F1F1",
"_.	c #5C5C5C",
":.	c #4F4F4F",
"<.	c #A2A2A2",
"[.	c #7B7B7B",
"}.	c #0A0A0A",
"|.	c #CACACA",
"1.	c #494949",
"2.	c #929292",
"3.	c #545454",
"4.	c #8E8E8E",
"5.	c #979797",
"6.	c #4A4A4A",
"7.	c #F7F7F7",
"8.	c #3B3B3B",
"9.	c #D6D6D6",
"0.	c #DFDFDF",
"a.	c #3A3A3A",
"b.	c #D0D0D0",
"c.	c #909090",
"d.	c #1D1D1D",
"e.	c #A9A9A9",
"f.	c #F9F9F9",
"g.	c #4C4C4C",
"h.	c #616161",
"i.	c #ADADAD",
"j.	c #040404",
"k.	c #161616",
"l.	c #D8D8D8",
"m.	c #313131",
"n.	c #797979",
"o.	c #373737",
"p.	c #F4F4F4",
"q.	c #2A2A2A",
"r.	c #E8E8E8",
"s.	c #848484",
"t.	c #1C1C1C",
"u.	c #191919",
"v.	c #DEDEDE",
"w.	c #565656",
"x.	c #3F3F3F",
"y.	c #A3A3A3",
"z.	c #484848",
"A.	c #BEBEBE",
"B.	c #2F2F2F",
"C.	c #595959",
"D.	c #7C7C7C",
"E.	c #949494",
"F.	c #DADADA",
"G.	c #151515",
"H.	c #B7B7B7",
"I.	c #636363",
"J.	c #898989",
"K.	c #F3F3F3",
"L.	c #444444",
"M.	c #696969",
"N.	c #1B1B1B",
"O.	c #E3E3E3",
"P.	c #CCCCCC",
"Q.	c #515151",
"R.	c #303030",
"S.	c #C3C3C3",
"T.	c #DDDDDD",
"U.	c #717171",
"V.	c #A1A1A1",
"W.	c #2C2C2C",
"X.	c #434343",
"Y.	c #424242",
"Z.	c #1E1E1E",
"`.	c #606060",
" +	c #7F7F7F",
".+	c #393939",
"++	c #B0B0B0",
"@+	c #A8A8A8",
". . . . . . . . . . . . . + @ # $ % & * = . . . . . . . . . . . . . . . . . . ",
". . . . . . . . . . . . - ; > > > > > > , ' ) . . . . . . . . . . . . . . . . ",
". . . . . . . . . . . ! ~ > > > > > > > > > { ] . . . . . . . . . . . . . . . ",
". . . . . . . . . . ^ / > > > > > > > > > > ( _ . . . . . . . . . . . . . . . ",
". . . . . . . . . . : > > > > > > > > > > > > < + . . . . . . . . . . . . . . ",
". . . . . . . . . [ } > > > > > > > > > > > > > | . . . . . . . . . . . . . . ",
". . . . . . . . . 1 > > > > > > > > > > > > > > 2 . . . . . . . . . . . . . . ",
". . . . . . . . . 3 > > > > > > > > > > > > > > 4 . . . . . . . . . . . . . . ",
". . . . . . . . . 5 > > > > > > > > > > > > > > 6 . . . . . . . . . . . . . . ",
". . . . . . . . . 7 8 > > > > > > > > > > > > > 9 . . . . . . . . . . . . . . ",
". . . . . . . . . . 0 > > > > > > > > > > > > a b . . . . . . . . . . . . . . ",
". . . . . . . . . . c d > > > > > > > > > > e - . . . . . . . . . . . . . . . ",
". . . . . . . . . . . f g > > > > > > > > e h i . . . . . . . . . . . . . . . ",
". . . . . . . . . . . . j k > > > > > > l m i . . . . . . . . . . . . . . . . ",
". . . . . . . . . . . . . ) & > > > > n o p p p p p p p p p p p b . . . . . . ",
". . . . . . . . . q r s - ] t > u v > w x d y z x x A B C x : D E F 2 2 2 2 G ",
". . . . . . . . H I r ' % h t > J K > > > L M N O > u . P > Q R S 1 T k U T V ",
". . . . . . . ) $ h . . W X S > J K > > > B Y Z ` > u  .[ ..Q R S . . +.@.. . ",
". . . . . . . c ~ q . @ { #.S > J K > > $.%.` m - > u Z &.5 ' R S . . +.@.. . ",
". . . . . . . *.} =.. -.;.@.n > J K > > >.M ,.'. .d u Z g ).^ R S . . +.@.. . ",
". . . . . . . . !.~.).{.# @.n > J K > > - ].X ^.+ 0 u Z $.../.R S . . +.@.. . ",
". . . . . . . . (._.I % @ :.n > <.[.> }.|.1.> > @ 2.3.W , ( 4.f S . . 5.6.. . ",
". . . . . . . . . . 7.b . . t > > > > 8.9.9.9.9.9.9.9.9.9.9.9.9.0.. . . . . . ",
". . . . . . . . . . . . . . t > > > > A . . . . . . . . . . . . . . . . . . . ",
". . . . . . . . . . . . . . t > > > > A . . . . . . . . . . . . . . . . . . . ",
". . . . . . . . . . . . . . t > > > > A . . . . . . . . . . . . . . . . . . . ",
". . . . . . . . . . . . . . t > > > > A . . . . . . . . . . . . . . . . . . . ",
". . . . . . . . . . . . . . t > > > > A . . . . . . . . . . . . . . . . . . . ",
". . . . . . . . . . . . . . t > > > > A . . . . . . . . . . . . . . . . . . . ",
". . . . . . . . . . . . . . t > > > > A . . . . . . . . . . . . . . . . . . . ",
". . . . . . . . . . . . . . t > > > > a.i . . . . . . . . . . . . . . . . . . ",
". . . . . . . . . . . . . b.O > > > > > c.. . . . . . . . . . . . . . . . . . ",
". . . . . . . . . . . . c d.> > > > > > w e.. . . . . . . . . . . . . . . . . ",
". . . . . . . . . . . + S > > > ( $.> > > } J . . . . . . . . . . . . . . . . ",
". . . . . . . . . . f.g.> % > > h.i.j.> > > k.l.. . . . . . . . . . . . . . . ",
". . . . . . . . . ] u > m.n.j.o.p.. h > > > > q.r.. . . . . . . . . . . . . . ",
". . . . . . . . i s.( l ^.t.u.v.. . ] w.> > > > x.p . . . . . . . . . . . . . ",
". . . . . . . . y.j.$.4.z.$.A.. . . . 7 B.> > > > C.] . . . . . . . . . . . . ",
". . . . . . . q } < D.a.( E.. . . . . . F.G.> > > > Q i . . . . . . . . . . . ",
". . . . . . l.% g #.6.> s . . . . . . . . H.w > > > > B . . . . . . . . . . . ",
". . . . . o @.}.!.I., 8.f.. . . . . . . . . J.> > > > , '.. . . . . . . . . . ",
". . . . K.o.e L.M.j.N.O.. . . . . . . . . . i ;.> > > > O P.. . . . . . . . . ",
". . . /.Q.> R.X I }.S.. . . . . . . . . . . . p.k > > > > t.T.. . . . . . . . ",
". . M z > l U.< e ^.. . . . . . . . . . . . . . 0.l > > > > B.Z . . . . . . . ",
". . 4.( / V.W.> &.i . . . . . . . . . . . . . . . q , > > > > X.f.. . . . . . ",
". i., U { 1.> Y.b . . . . . . . . . . . . . . . . . c.( > > > > { ] . . . . . ",
"J I > $...> Z.%.. . . . . . . . . . . . . . . . . . i `.> > > > >  +i . . . . ",
": > > > > } ).. . . . . . . . . . . . . . . . . . . .  ..+> > > > ~ ++. . . . ",
"p.:.> > e V.. . . . . . . . . . . . . . . . . . . . . . c t.> > > :.+ . . . . ",
". /.T ( U.. . . . . . . . . . . . . . . . . . . . . . . . S.}.> u f.. . . . . ",
". . i @+f.. . . . . . . . . . . . . . . . . . . . . . . . . G 6 i . . . . . . "};
