/* XPM */
static char * OC_User_Type_Declaration_xpm[] = {
"144 74 4 1",
" 	c None",
".	c #FFFFFF",
"+	c #0000FF",
"@	c #000090",
"................................................................................................................................................",
"................................................................................................................................................",
"................................................................................................................................................",
"................................................................................................................................................",
"................................................................................................................................................",
"................................................................................................................................................",
"......++++++++++++++++++++++++++++++++++++++++...........................+++++++++++++++++++++++++++++++++++++++++++++++++++++++++++++++........",
"......+++++++++++++++++++++++++++++++++++++++++...........................++++++++++++++++++++++++++++++++++++++++++++++++++++++++++++++........",
"......+++++++++++++++++++++++++++++++++++++++++...........................++++++++++++++++++++++++++++++++++++++++++++++++++++++++++++++........",
"......+++++++++++++++++++++++++++++++++++++++++............................+++++++++++++++++++++++++++++++++++++++++++++++++++++++++++++........",
"......++++++++++++++++++++++++++++++++++++++++++...........................+++++++++++++++++++++++++++++++++++++++++++++++++++++++++++++........",
"......++++++++++++++++++++++++++++++++++++++++++...........................+++++++++++++++++++++++++++++++++++++++++++++++++++++++++++++........",
"......+++++++++++++++++++++++++++++++++++++++++++...........................++++++++++++++++++++++++++++++++++++++++++++++++++++++++++++........",
"......+++++++++++++++++++++++++++++++++++++++++++...........................++++++++++++++++++++++++++++++++++++++++++++++++++++++++++++........",
"......+++++++++++++++++++++++++++++++++++++++++++...........................++++++++++++++++++++++++++++++++++++++++++++++++++++++++++++........",
"......++++++++++++++++++++++++++++++++++++++++++++...........................+++++++++++++++++++++++++++++++++++++++++++++++++++++++++++........",
"......++++++++++++++++++++++++++++++++++++++++++++...........................+++++++++++++++++++++++++++++++++++++++++++++++++++++++++++........",
"......++++++++++++++++++++++++++++++++++++++++++++............................++++++++++++++++++++++++++++++++++++++++++++++++++++++++++........",
"......++++++++++..............................................................................................................++++++++++........",
"......++++++++++..............................................................................................................++++++++++........",
"......++++++++++..@@@@@@@@@@@@@@@@@@@@@@@@@@@@@@@@@@@@@@@@@@@@@@@@@@@@@@@@@@@@@@@@@@@@@@@@@@@@@@@@@@@@@@@@@@@@@@@@@@@@@@@@@@..++++++++++........",
"......++++++++++..@@@@@@@@@@@@@@@@@@@@@@@@@@@@@@@@@@@@@@@@@@@@@@@@@@@@@@@@@@@@@@@@@@@@@@@@@@@@@@@@@@@@@@@@@@@@@@@@@@@@@@@@@@..++++++++++........",
"......++++++++++..@@@@@@@@@@@@@@@@@@@@@@@@@@@@@@@@@@@@@@@@@@@@@@@@@@@@@@@@@@@@@@@@@@@@@@@@@@@@@@@@@@@@@@@@@@@@@@@@@@@@@@@@@@..++++++++++........",
"......++++++++++..@@@@@@@@@@@@@@@@@@@@@@@@@@@@@@@@@@@@@@@@@@@@@@@@@@@@@@@@@@@@@@@@@@@@@@@@@@@@@@@@@@@@@@@@@@@@@@@@@@@@@@@@@@..++++++++++........",
"......++++++++++..@@@@@@@@@@@@@@@@@@@@@@@@@@@@@@@@@@@@@@@@@@@@@@@@@@@@@@@@@@@@@@@@@@@@@@@@@@@@@@@@@@@@@@@@@@@@@@@@@@@@@@@@@@..++++++++++........",
"......++++++++++..@@@@@@@@@@@.....@@@@@....@@@@@@@@@@..@@@@..@@@@@@@@@@@@@@@@@@@@@@@@@@.......@@@@@@@@@@@@@@@@@@@@@@@@@@@@@@..++++++++++........",
"......++++++++++..@@@@@@@@@@..@@@..@@@..@@@.@@@@@@@@@..@@@@..@@@@@@@@@@@@@@@@@@@@@@@@@@@@@..@@@@@@@@@@@@@@@@@@@@@@@@@@@@@@@@..++++++++++........",
"......++++++++++..@@@@@@@@@..@@@@@..@..@@@@@@@@@@@@@@..@@@@..@...@@@@....@@....@@@@@@@@@@@..@@..@@@..@......@@@@....@@@@@@@@..++++++++++........",
"......++++++++++..@@@@@@@@@..@@@@@..@..@@@@@@@@@@@@@@..@@@@....@@@@@.@@@..@..@@@@@@@@@@@@@..@@..@@@.@@...@@..@@.@@@..@@@@@@@..++++++++++........",
"......++++++++++..@@@@@@@@@..@@@@@..@..@@@@@@@@@@@@@@..@@@@.....@@@..@@@..@..@@@@@@@@@@@@@..@@@..@..@@..@@@..@..@@@..@@@@@@@..++++++++++........",
"......++++++++++..@@@@@@@@@..@@@@@..@..@@@@@@@@@@@@@@..@@@@.......@.......@..@@@@@@@@@@@@@..@@@..@..@@..@@@..@.......@@@@@@@..++++++++++........",
"......++++++++++..@@@@@@@@@..@@@@@..@..@@@@@@@@@@@@@@..@@@@..@@@..@..@@@@@@..@@@@@@@@@@@@@..@@@..@.@@@..@@@..@..@@@@@@@@@@@@..++++++++++........",
"......++++++++++..@@@@@@@@@@..@@@..@@@..@@@@@@@@@@@@@...@@...@@@..@...@@.@@..@@@@@@@@@@@@@..@@@@...@@@...@...@...@@.@@@@@@@@..++++++++++........",
"......++++++++++..@@@@@@@@@@@.....@@@@@.....@@@@@@@@@@@....@@....@@@.....@@..@@@@@@@@@@@@@..@@@@...@@@......@@@.....@@@@@@@@..++++++++++........",
"......++++++++++..@@@@@@@@@@@@@@@@@@@@@@@@@@@@@@@@@@@@@@@@@@@@@@@@@@@@@@@@@@@@@@@@@@@@@@@@@@@@@@..@@@@..@@@@@@@@@@@@@@@@@@@@..++++++++++........",
"......++++++++++..@@@@@@@@@@@@@@@@@@@@@@@@@@@.......@@@@@@@@@@@@@@@@@@@@@@@@@@@.......@@@@@@@@@@..@@@@..@@@@@@@@@@@@@@@@@@@@..++++++++++........",
"......++++++++++..@@@@@@@@@@@@@@@@@@@@@@@@@@@@@@@@@@@@@@@@@@@@@@@@@@@@@@@@@@@@@@@@@@@@@@@@@@@@...@@@@@..@@@@@@@@@@@@@@@@@@@@..++++++++++........",
"......++++++++++..@@@@@@@@@@@@@@@@@@@@@@@@@@@@@@@@@@@@@@@@@@@@@@@@@@@@@@@@@@@@@@@@@@@@@@@@@@@@@@@@@@@@@@@@@@@@@@@@@@@@@@@@@@..++++++++++........",
"......++++++++++..@@@@@@@@@@@@@@@@@@@@@@@@@@@@@@@@@@@@@@@@@@@@@@@@@@@@@@@@@@@@@@@@@@@@@@@@@@@@@@@@@@@@@@@@@@@@@@@@@@@@@@@@@@..++++++++++........",
"......++++++++++..@@@@@@@@@@@@@@@@@@@@@@@@@@@@@@@@@@@@@@@@@@@@@@@@@@@@@@@@@@@@@@@@@@@@@@@@@@@@@@@@@@@@@@@@@@@@@@@@@@@@@@@@@@..++++++++++........",
"......++++++++++..@@@@@@@@@@@@@@@@@@@@@@@@@@@@@@@@@@@@@@@@@..@@@@@@@@@@@@@@@@@@@@@@@@@@@..@@@@@@@@@@@@@@@@@@@@@@@@@@@@@@@@@@..++++++++++........",
"......++++++++++..@@@@@@@@@@@@@@@@@@@......@@@@@@@@@@@@@@@@..@@@@@@@@@@@@@@@@@@@@@@..@@@@@@@@@@@@@@@@@@@@@@@@@@@@@@@@@@@@@@@..++++++++++........",
"......++++++++++..@@@@@@@@@@@@@@@@@@@..@@@..@@@@@@@@@@@@@@@..@@@@@@@@@@@@@@@@@@@@@@..@@@@@@@@@@@@@@@@@@@@@@@@@@@@@@@@@@@@@@@..++++++++++........",
"......++++++++++..@@@@@@@@@@@@@@@@@@@..@@@@..@@....@@...@@@..@@....@@@....@@....@@.....@..@@@...@@@@.....@@@@@@@@@@@@@@@@@@@..++++++++++........",
"......++++++++++..@@@@@@@@@@@@@@@@@@@..@@@@..@.@@@.....@.@@..@@@@@..@@..@@@@@@@..@@..@@@..@@..@..@@@..@@..@@@@@@@@@@@@@@@@@@..++++++++++........",
"......++++++++++..@@@@@@@@@@@@@@@@@@@..@@@@....@@@....@@@@@..@@@@@..@@..@@@@@@@..@@..@@@..@..@@@..@@..@@..@@@@@@@@@@@@@@@@@@..++++++++++........",
"......++++++++++..@@@@@@@@@@@@@@@@@@@..@@@@...........@@@@@..@@.....@@..@@@@.....@@..@@@..@..@@@..@@..@@..@@@@@@@@@@@@@@@@@@..++++++++++........",
"......++++++++++..@@@@@@@@@@@@@@@@@@@..@@@@....@@@@@..@@@@@..@..@@..@@..@@@..@@..@@..@@@..@..@@@..@@..@@..@@@@@@@@@@@@@@@@@@..++++++++++........",
"......++++++++++..@@@@@@@@@@@@@@@@@@@..@@@..@...@@.@...@@@@..@..@@..@@..@@@..@@..@@..@@@..@@.@@@.@@@..@@..@@@@@@@@@@@@@@@@@@..++++++++++........",
"......++++++++++..@@@@@@@@@@@@@@@@@@@......@@@.....@@....@@..@@...@..@..@@@@...@..@@...@..@@@...@@@@..@@..@@@@@@@@@@@@@@@@@@..++++++++++........",
"......++++++++++..@@@@@@@@@@@@@@@@@@@@@@@@@@@@@@@@@@@@@@@@@@@@@@@@@@@@@@@@@@@@@@@@@@@@@@@@@@@@@@@@@@@@@@@@@@@@@@@@@@@@@@@@@@..++++++++++........",
"......++++++++++..@@@@@@@@@@@@@@@@@@@@@@@@@@@@@@@@@@@@@@@@@@@@@@@@@@@@@@@@@@@@@@@@@@@@@@@@@@@@@@@@@@@@@@@@@@@@@@@@@@@@@@@@@@..++++++++++........",
"......++++++++++..@@@@@@@@@@@@@@@@@@@@@@@@@@@@@@@@@@@@@@@@@@@@@@@@@@@@@@@@@@@@@@@@@@@@@@@@@@@@@@@@@@@@@@@@@@@@@@@@@@@@@@@@@@..++++++++++........",
"......++++++++++..@@@@@@@@@@@@@@@@@@@@@@@@@@@@@@@@@@@@@@@@@@@@@@@@@@@@@@@@@@@@@@@@@@@@@@@@@@@@@@@@@@@@@@@@@@@@@@@@@@@@@@@@@@..++++++++++........",
"......++++++++++..............................................................................................................++++++++++........",
"......++++++++++..............................................................................................................++++++++++........",
"......+++++++++++++++++++++++++++++++++++++++++++++++++++++++++++............................+++++++++++++++++++++++++++++++++++++++++++........",
"......+++++++++++++++++++++++++++++++++++++++++++++++++++++++++++............................+++++++++++++++++++++++++++++++++++++++++++........",
"......++++++++++++++++++++++++++++++++++++++++++++++++++++++++++++............................++++++++++++++++++++++++++++++++++++++++++........",
"......++++++++++++++++++++++++++++++++++++++++++++++++++++++++++++............................++++++++++++++++++++++++++++++++++++++++++........",
"......++++++++++++++++++++++++++++++++++++++++++++++++++++++++++++............................++++++++++++++++++++++++++++++++++++++++++........",
"......+++++++++++++++++++++++++++++++++++++++++++++++++++++++++++++............................+++++++++++++++++++++++++++++++++++++++++........",
"......+++++++++++++++++++++++++++++++++++++++++++++++++++++++++++++............................+++++++++++++++++++++++++++++++++++++++++........",
"......++++++++++++++++++++++++++++++++++++++++++++++++++++++++++++++...........................+++++++++++++++++++++++++++++++++++++++++........",
"......++++++++++++++++++++++++++++++++++++++++++++++++++++++++++++++............................++++++++++++++++++++++++++++++++++++++++........",
"......++++++++++++++++++++++++++++++++++++++++++++++++++++++++++++++............................++++++++++++++++++++++++++++++++++++++++........",
"................................................................................................................................................",
"................................................................................................................................................",
"................................................................................................................................................",
"................................................................................................................................................",
"................................................................................................................................................",
"................................................................................................................................................",
"................................................................................................................................................",
"................................................................................................................................................"};
