/* XPM */
static char * Prog_Unit_xpm[] = {
"123 123 4 1",
" 	c None",
".	c #FFFFFF",
"+	c #FF0000",
"@	c #000000",
"...........................................................................................................................",
"...........................................................................................................................",
"...........................................................................................................................",
"..........................................................................................++...............................",
".........................................................................................++++..............................",
"........................................................................................++++++.............................",
".......................................................................................++++++++............................",
"......................................................................................++++..++++...........................",
".....................................................................................++++....++++..........................",
"....................................................................................++++......++++.........................",
"...................................................................................++++........++++........................",
"..................................................................................++++..........++++.......................",
".................................................................................++++............++++......................",
"................................................................................++++..............++++.....................",
"...............................................................................++++................++++....................",
"..............................................................................++++..................++++...................",
".............................................................................++++....................++++..................",
"............................................................................++++......................++++.................",
"...........................................................................++++........................++++................",
"..........................................................................++++..........................++++...............",
".........................................................................++++............................++++..............",
"........................................................................++++..............................++++.............",
".......................................................................++++................................++++............",
"........................@@@@@@@@@@@@@@@@@@@@@@@@@@@@@@@@@@@@@@@@@@....++++..................................++++...........",
"........................@+++++++++++++++++++++++++++++++++++++++@....++++....................................++++..........",
"........................@++++++++++++++++++++++++++++++++++++++@....++++......................................++++.........",
"........................@+++++++++++++++++++++++++++++++++++++@....++++........................................++++........",
"........................@++++++++++++++++++++++++++++++++++++@....++++..................@.......................++++.......",
"........................@+++++++++++++++++++++++++++++++++++@....++++..................@@@.@@....................++++......",
"........................@++++++++++++++++++++++++++++++++++@....++++...................@@@@@......................++++.....",
"........................@+++++++++++++++++++++++++++++++++@....++++.....................@@@@.......................++++....",
"........................@++++++++++++++++++++++++++++++++@....++++................@.....@@@@@.......................++++...",
"........................@+++++++++++++++++++++++++++++++@....++++................@@.....@.@@@@.......................++++..",
"........................@++++++++++++++++++++++++++++++@....++++.................@.........@@@@..@@.................++++...",
"........................@+++++++++++++++++++++++++++++@....++++......................@......@@@@@@@................++++....",
"........................@++++++++++++++++++++++++++++@....++++......................@@@......@@@@@................++++.....",
"........................@+++++++++++++++++++++++++++@....++++.......................@@@@......@@.................++++......",
"........................@++++++++++++++++++++++++++@....++++.........................@@@@.......................++++.......",
"........................@+++++++++++++++++++++++++@....++++......................@@...@@@@.....................++++........",
"........................@++++++++++++++++++++++++@....++++......................@@@@@..@@@@...................++++.........",
"........................@+++++++++++++++++++++++@....++++......................@@@@@@@..@@@@.................++++..........",
"........................@++++++++++++++++++++++@....++++......................@@..@@@@@..@@@................++++...........",
"........................@+++++++++++++++++++++@....++++.......................@.....@@@@..@................++++............",
"........................@++++++++++++++++++++@....++++................@.....@@@......@@@@.................++++.............",
"........................@+++++++++++++++++++@....++++................@@@....@@@@......@@@................++++..............",
"........................@++++++++++++++++++@....++++.................@@@@....@@@@......@................++++...............",
"........................@+++++++++++++++++@....++++...................@@@@....@@@@.....................++++................",
"........................@++++++++++++++++@....++++.....................@@@@....@@@@...................++++.................",
"........................@+++++++++++++++@....++++.......................@@@@....@@@@.................++++..................",
"........................@++++++++++++++@....++++................@........@@@@....@@@................++++...................",
"........................@+++++++++++++@....++++................@@@........@@@.....@................++++....................",
"........................@++++++++++++@....++++.................@@@@.......@@@@....................++++.....................",
"........................@+++++++++++@....++++...................@@@@.......@@@...................++++......................",
"........................@++++++++++@....++++.....................@@@@.......@@..................++++.......................",
"........................@+++++++++@....++++.......................@@@@......@@.................++++........................",
"........................@++++++++@....++++.........................@@@@....@@.................++++.........................",
"........................@+++++++@....++++...........................@@@@..@@.................++++..........................",
"........................@++++++@....++++.............................@@@@@@.................++++...........................",
"........................@+++++@....++++...............................@@@@.................++++....@.......................",
"........................@++++@....++++....................................................++++....@@.......................",
"........................@+++@....++++....................................................++++....@+@.......................",
"........................@++@....++++....................................................++++....@++@.......................",
"........................@+@....++++......................@.............................++++....@+++@.......................",
"........................@@....++++......................@@@.............@.............++++....@++++@.......................",
"........................@....++++......................@@@@@...........@@............++++....@+++++@.......................",
"............................++++......................@@@@@@@.........@@............++++....@++++++@.......................",
"...........................++++......................@@..@@@@@.......@@............++++....@+++++++@.......................",
"..........................++++......................@@.....@@@@.....@@............++++....@++++++++@.......................",
".........................++++.......................@@.....@@@@@...@@............++++....@+++++++++@.......................",
"........................++++........................@@@.....@@@@..@@............++++....@++++++++++@.......................",
".......................++++.........................@@@@....@@@@@.@............++++....@+++++++++++@.......................",
"......................++++...........................@@@@...@.@@@.............++++....@++++++++++++@.......................",
".....................++++.............................@@@@@@...@@............++++....@+++++++++++++@.......................",
"....................++++......................@@@@.....@@@@....@@...........++++....@++++++++++++++@.......................",
"...................++++......................@@@@@@@..........@@...........++++....@+++++++++++++++@.......................",
"..................++++......................@@..@@@@.........@@@..........++++....@++++++++++++++++@.......................",
".................++++......................@@.....@@@......@@@...........++++....@+++++++++++++++++@.......................",
"................++++......................@@......@@@.......@...........++++....@++++++++++++++++++@.......................",
"...............++++.......................@@.......@@..................++++....@+++++++++++++++++++@.......................",
"..............++++......................@.@@@......@@.................++++....@++++++++++++++++++++@.......................",
".............++++......................@@@@@@@....@@.................++++....@+++++++++++++++++++++@.......................",
"............++++.......................@...@@@@..@@.................++++....@++++++++++++++++++++++@.......................",
"...........++++......................@@@....@@@@@@.................++++....@+++++++++++++++++++++++@.......................",
"..........++++................@@@@...@@@@....@@@@.................++++....@++++++++++++++++++++++++@.......................",
".........++++................@@@@@@...@@@@.......................++++....@+++++++++++++++++++++++++@.......................",
"........++++................@@..@@@@...@@@@.....................++++....@++++++++++++++++++++++++++@.......................",
".......++++................@@....@@@....@@@@...................++++....@+++++++++++++++++++++++++++@.......................",
"......++++................@@@.....@@.....@@@@.................++++....@++++++++++++++++++++++++++++@.......................",
".....++++.................@@@@....@@......@@@................++++....@+++++++++++++++++++++++++++++@.......................",
"....++++...................@@@@..@@........@................++++....@++++++++++++++++++++++++++++++@.......................",
"...++++.....................@@@@.@.........................++++....@+++++++++++++++++++++++++++++++@.......................",
"....++++.....................@@@@@........................++++....@++++++++++++++++++++++++++++++++@.......................",
".....++++.....................@@@@.......................++++....@+++++++++++++++++++++++++++++++++@.......................",
"......++++.....................@@@@.....................++++....@++++++++++++++++++++++++++++++++++@.......................",
".......++++.....................@@@@...................++++....@+++++++++++++++++++++++++++++++++++@.......................",
"........++++.....................@@@@.................++++....@++++++++++++++++++++++++++++++++++++@.......................",
".........++++.....................@@@................++++....@+++++++++++++++++++++++++++++++++++++@.......................",
"..........++++.....................@................++++....@++++++++++++++++++++++++++++++++++++++@.......................",
"...........++++....................................++++....@+++++++++++++++++++++++++++++++++++++++@.......................",
"............++++..................................++++....@@@@@@@@@@@@@@@@@@@@@@@@@@@@@@@@@@@@@@@@@@.......................",
".............++++................................++++......................................................................",
"..............++++..............................++++.......................................................................",
"...............++++............................++++........................................................................",
"................++++..........................++++.........................................................................",
".................++++........................++++..........................................................................",
"..................++++......................++++...........................................................................",
"...................++++....................++++............................................................................",
"....................++++..................++++.............................................................................",
".....................++++................++++..............................................................................",
"......................++++..............++++...............................................................................",
".......................++++............++++................................................................................",
"........................++++..........++++.................................................................................",
".........................++++........++++..................................................................................",
"..........................++++......++++...................................................................................",
"...........................++++....++++....................................................................................",
"............................++++..++++.....................................................................................",
".............................++++++++......................................................................................",
"..............................++++++.......................................................................................",
"...............................++++........................................................................................",
"................................++.........................................................................................",
"...........................................................................................................................",
"...........................................................................................................................",
"..........................................................................................................................."};
