/* XPM */
static char * Routine_xpm[] = {
"108 109 5 1",
" 	c None",
".	c #FFFFFF",
"+	c #FF0000",
"@	c #000000",
"#	c #900000",
"............................................................................................................",
"............................................................................................................",
"............................................................................................................",
"..........................................................................++................................",
".........................................................................++++...............................",
"........................................................................++++++..............................",
".......................................................................++++++++.............................",
"......................................................................++++..++++............................",
".....................................................................++++....++++...........................",
"....................................................................++++......++++..........................",
"...................................................................++++........++++.........................",
"..................................................................++++..........++++........................",
".................................................................++++............++++.......................",
"................................................................++++..............++++......................",
"...............................................................++++................++++.....................",
".................@@@@@@@@@@@@@@@@@@@@@@@@@@@@@@@@@@@@@@@@@@...++++..................++++....................",
".................@#######################################@...++++....................++++...................",
".................@######################################@...++++......................++++..................",
".................@#####################################@...++++........................++++.................",
".................@####################################@...++++..........................++++................",
".................@###################################@...++++............................++++...............",
".................@##################################@...++++..............................++++..............",
".................@#################################@...++++................................++++.............",
".................@################################@...++++..................................++++............",
".................@###############################@...++++....................................++++...........",
".................@##############################@...++++......................................++++..........",
".................@#############################@...++++........................................++++.........",
".................@############################@...++++..........................................++++........",
".................@###########################@...++++............................................++++.......",
".................@##########################@...++++......................@@@@....................++++......",
".................@#########################@...++++......................@@@@@@....................++++.....",
".................@########################@...++++......................@@..@@@@....................++++....",
".................@#######################@...++++......................@@....@@......................++++...",
".................@######################@...++++.......................@@...@@..@...................++++....",
".................@#####################@...++++........................@@@.@@...@@.................++++.....",
".................@####################@...++++.........................@@@@@...@@.................++++......",
".................@###################@...++++......................@@...@@@@..@@.................++++.......",
".................@##################@...++++......................@@@@@..@@@@@@@................++++........",
".................@#################@...++++......................@@@@@@@..@@@@.................++++.........",
".................@################@...++++......................@@..@@@@@.....................++++..........",
".................@###############@...++++.......................@.....@@@@...................++++...........",
".................@##############@...++++................@.....@@@......@@@@.................++++............",
".................@#############@...++++................@@.....@@@@......@@@................++++.............",
".................@############@...++++.................@.......@@@@......@................++++..............",
".................@###########@...++++......................@....@@@@.....................++++...............",
".................@##########@...++++......................@@@....@@@@...................++++................",
".................@#########@...++++.......................@@@@....@@@@.................++++.................",
".................@########@...++++.........................@@@@....@@@................++++..................",
".................@#######@...++++..................@........@@@@....@................++++...................",
".................@######@...++++..................@@@.@@.....@@@@...................++++....................",
".................@#####@...++++...................@@@@@.......@@@@.................++++....@................",
".................@####@...++++.....................@@@@........@@@................++++....@@................",
".................@###@...++++......................@@@@@........@................++++....@#@................",
".................@##@...++++......................@@.@@@@.......................++++....@##@................",
".................@#@...++++......................@@@..@@@@..@@.................++++....@###@................",
".................@@...++++.......................@@@@..@@@@@@@................++++....@####@................",
".................@...++++.........................@@@@..@@@@@................++++....@#####@................",
"....................++++...........................@@@@..@@.................++++....@######@................",
"...................++++......................@......@@@@...................++++....@#######@................",
"..................++++......................@@@.....@@@@@.................++++....@########@................",
".................++++.......................@@@@.....@@@@................++++....@#########@................",
"................++++.........................@@@@....@@@................++++....@##########@................",
"...............++++...........................@@@@..@@.................++++....@###########@................",
"..............++++.............................@@@@@@.................++++....@############@................",
".............++++.......................@@@@....@@@@@................++++....@#############@................",
"............++++.......................@@@@@@@...@@.................++++....@##############@................",
"...........++++.......................@@..@@@@.....................++++....@###############@................",
"..........++++.......................@@.....@@@...................++++....@################@................",
".........++++.......................@@......@@@..................++++....@#################@................",
"........++++................@@@@@...@@.......@@.................++++....@##################@................",
".......++++................@@@@@@...@@@......@@................++++....@###################@................",
"......++++................@@..@@@@..@@@@....@@................++++....@####################@................",
".....++++................@@....@@@...@@@@..@@................++++....@#####################@................",
"....++++................@@@.....@.....@@@@@@................++++....@######################@................",
"...++++.................@@@@....@@@....@@@@................++++....@#######################@................",
"..++++...................@@@@..@@@@@@@....................++++....@########################@................",
"...++++...................@@@@.@@@@@@@@@.................++++....@#########################@................",
"....++++...................@@@@@...@@@@@................++++....@##########################@................",
".....++++...................@@@@.....@@................++++....@###########################@................",
"......++++...................@@@@.....................++++....@############################@................",
".......++++...................@@@@...................++++....@#############################@................",
"........++++...................@@@@.................++++....@##############################@................",
".........++++...................@@@................++++....@###############################@................",
"..........++++...................@................++++....@################################@................",
"...........++++..................................++++....@#################################@................",
"............++++................................++++....@##################################@................",
".............++++..............................++++....@###################################@................",
"..............++++............................++++....@####################################@................",
"...............++++..........................++++....@#####################################@................",
"................++++........................++++....@######################################@................",
".................++++......................++++....@#######################################@................",
"..................++++....................++++....@@@@@@@@@@@@@@@@@@@@@@@@@@@@@@@@@@@@@@@@@@................",
"...................++++..................++++...............................................................",
"....................++++................++++................................................................",
".....................++++..............++++.................................................................",
"......................++++............++++..................................................................",
".......................++++..........++++...................................................................",
"........................++++........++++....................................................................",
".........................++++......++++.....................................................................",
"..........................++++....++++......................................................................",
"...........................++++..++++.......................................................................",
"............................++++++++........................................................................",
".............................++++++.........................................................................",
"..............................++++..........................................................................",
"...............................++...........................................................................",
"............................................................................................................",
"............................................................................................................",
"............................................................................................................",
"............................................................................................................"};
