/* XPM */
static char * TC_Routine_xpm[] = {
"144 74 5 1",
" 	c None",
".	c #FFFFFF",
"+	c #FFFF00",
"@	c #000000",
"#	c #FF9000",
"................................................................................................................................................",
"................................................................................................................................................",
"................................................................................................................................................",
"................................................................................................................................................",
"................................................................................................................................................",
"................................................................................................................................................",
"................................................................................................................................................",
".......+++++++++++++++++++++++++++++++++++++++++............................+++++++++++++++++++++++++++++++++++++++++++++++++++++++++++++.......",
".......+++++++++++++++++++++++++++++++++++++++++............................+++++++++++++++++++++++++++++++++++++++++++++++++++++++++++++.......",
".......++++++++++++++++++++++++++++++++++++++++++...........................+++++++++++++++++++++++++++++++++++++++++++++++++++++++++++++.......",
".......++++++++++++++++++++++++++++++++++++++++++............................++++++++++++++++++++++++++++++++++++++++++++++++++++++++++++.......",
".......++++++++++++++++++++++++++++++++++++++++++............................++++++++++++++++++++++++++++++++++++++++++++++++++++++++++++.......",
".......+++++++++++++++++++++++++++++++++++++++++++............................+++++++++++++++++++++++++++++++++++++++++++++++++++++++++++.......",
".......+++++++++++++++++++++++++++++++++++++++++++............................+++++++++++++++++++++++++++++++++++++++++++++++++++++++++++.......",
".......+++++++++++++++++++++++++++++++++++++++++++............................+++++++++++++++++++++++++++++++++++++++++++++++++++++++++++.......",
".......++++++++++++++++++++++++++++++++++++++++++++............................++++++++++++++++++++++++++++++++++++++++++++++++++++++++++.......",
".......++++++++++++++++++++++++++++++++++++++++++++............................++++++++++++++++++++++++++++++++++++++++++++++++++++++++++.......",
".......+++++++++++++++++++++++++++++++++++++++++++++...........................++++++++++++++++++++++++++++++++++++++++++++++++++++++++++.......",
".......++++++++++@@@@@@@@@@@@@@@@@@@@@@@@@@@@@@@@@@@@@@@@@@@@@@@@@@@@@@@@@@@@@@@@@@@@@@@@@@@@@@@@@@@@@@@@@@@@@@@@@@@@@@@@@@@@@@++++++++++.......",
".......++++++++++@@@@@@@@@@@@@@@@@@@@@@@@@@@@@@@@@@@@@@@@@@@@@@@@@@@@@@@@@@@@@@@@@@@@@@@@@@@@@@@@@@@@@@@@@@@@@@@@@@@@@@@@@@@@@@++++++++++.......",
".......++++++++++@@##########################################################################################################@@++++++++++.......",
".......++++++++++@@##########################################################################################################@@++++++++++.......",
".......++++++++++@@##########################################################################################################@@++++++++++.......",
".......++++++++++@@##########################################################################################################@@++++++++++.......",
".......++++++++++@@##########################################################################################################@@++++++++++.......",
".......++++++++++@@##########################################################################################################@@++++++++++.......",
".......++++++++++@@##########################################################################################################@@++++++++++.......",
".......++++++++++@@##########################################################################################################@@++++++++++.......",
".......++++++++++@@##########################################################################################################@@++++++++++.......",
".......++++++++++@@##########################################################################################################@@++++++++++.......",
".......++++++++++@@############################################################################@@############################@@++++++++++.......",
".......++++++++++@@##########@@@@@@@@@#####@@@@###########@@@@@@###############################@@############################@@++++++++++.......",
".......++++++++++@@##########@@@@@@@@@###@@@@@@@##########@@@@@@@@#######################@@##################################@@++++++++++.......",
".......++++++++++@@#############@@######@@@###############@@####@@#######################@@##################################@@++++++++++.......",
".......++++++++++@@#############@@#####@@@################@@####@@###@@@@@####@@####@@#@@@@@@##@@###@@#@@@@####@@@@##########@@++++++++++.......",
".......++++++++++@@#############@@#####@@#################@@###@@@##@@@@@@@###@@####@@#@@@@@@##@@###@@@@@@@@##@@@@@@#########@@++++++++++.......",
".......++++++++++@@#############@@#####@@#################@@@@@@@##@@@###@@@##@@####@@###@@####@@###@@@###@@#@@####@@########@@++++++++++.......",
".......++++++++++@@#############@@#####@@#################@@@@@@@##@@#####@@##@@####@@###@@####@@###@@####@@#@@@@@@@@########@@++++++++++.......",
".......++++++++++@@#############@@#####@@#################@@##@@@##@@#####@@##@@####@@###@@####@@###@@####@@#@@@@@@@@########@@++++++++++.......",
".......++++++++++@@#############@@#####@@@################@@###@@##@@#####@@##@@####@@###@@####@@###@@####@@#@@##############@@++++++++++.......",
".......++++++++++@@#############@@######@@@###############@@###@@@#@@@###@@@##@@###@@@###@@####@@###@@####@@#@@@#############@@++++++++++.......",
".......++++++++++@@#############@@#######@@@@@@@##########@@###@@@##@@@@@@@###@@@@@@@@###@@@@##@@###@@####@@##@@@@@@@########@@++++++++++.......",
".......++++++++++@@#############@@########@@@@@@##########@@####@@@##@@@@@#####@@@@#@@####@@@##@@###@@####@@###@@@@@#########@@++++++++++.......",
".......++++++++++@@##########################################################################################################@@++++++++++.......",
".......++++++++++@@#############################@@@@@@@@@####################################################################@@++++++++++.......",
".......++++++++++@@##########################################################################################################@@++++++++++.......",
".......++++++++++@@##########################################################################################################@@++++++++++.......",
".......++++++++++@@##########################################################################################################@@++++++++++.......",
".......++++++++++@@##########################################################################################################@@++++++++++.......",
".......++++++++++@@##########################################################################################################@@++++++++++.......",
".......++++++++++@@##########################################################################################################@@++++++++++.......",
".......++++++++++@@##########################################################################################################@@++++++++++.......",
".......++++++++++@@##########################################################################################################@@++++++++++.......",
".......++++++++++@@##########################################################################################################@@++++++++++.......",
".......++++++++++@@@@@@@@@@@@@@@@@@@@@@@@@@@@@@@@@@@@@@@@@@@@@@@@@@@@@@@@@@@@@@@@@@@@@@@@@@@@@@@@@@@@@@@@@@@@@@@@@@@@@@@@@@@@@@++++++++++.......",
".......++++++++++@@@@@@@@@@@@@@@@@@@@@@@@@@@@@@@@@@@@@@@@@@@@@@@@@@@@@@@@@@@@@@@@@@@@@@@@@@@@@@@@@@@@@@@@@@@@@@@@@@@@@@@@@@@@@@++++++++++.......",
".......+++++++++++++++++++++++++++++++++++++++++++++++++++++++++++............................+++++++++++++++++++++++++++++++++++++++++++.......",
".......++++++++++++++++++++++++++++++++++++++++++++++++++++++++++++...........................+++++++++++++++++++++++++++++++++++++++++++.......",
".......++++++++++++++++++++++++++++++++++++++++++++++++++++++++++++...........................+++++++++++++++++++++++++++++++++++++++++++.......",
".......+++++++++++++++++++++++++++++++++++++++++++++++++++++++++++++...........................++++++++++++++++++++++++++++++++++++++++++.......",
".......+++++++++++++++++++++++++++++++++++++++++++++++++++++++++++++...........................++++++++++++++++++++++++++++++++++++++++++.......",
".......+++++++++++++++++++++++++++++++++++++++++++++++++++++++++++++...........................++++++++++++++++++++++++++++++++++++++++++.......",
".......++++++++++++++++++++++++++++++++++++++++++++++++++++++++++++++...........................+++++++++++++++++++++++++++++++++++++++++.......",
".......++++++++++++++++++++++++++++++++++++++++++++++++++++++++++++++...........................+++++++++++++++++++++++++++++++++++++++++.......",
".......++++++++++++++++++++++++++++++++++++++++++++++++++++++++++++++............................++++++++++++++++++++++++++++++++++++++++.......",
".......+++++++++++++++++++++++++++++++++++++++++++++++++++++++++++++++...........................++++++++++++++++++++++++++++++++++++++++.......",
".......+++++++++++++++++++++++++++++++++++++++++++++++++++++++++++++++...........................++++++++++++++++++++++++++++++++++++++++.......",
"................................................................................................................................................",
"................................................................................................................................................",
"................................................................................................................................................",
"................................................................................................................................................",
"................................................................................................................................................",
"................................................................................................................................................",
"................................................................................................................................................"};
