/* XPM */
static char * Unary_Operator_xpm[] = {
"115 114 5 1",
" 	c None",
".	c #FFFFFF",
"+	c #000000",
"@	c #00C800",
"#	c #900090",
"...................................................................................................................",
"...................................................................................................................",
"...................................................................................................................",
".........................................................+.........................................................",
"........................................................+++........................................................",
".......................................................+++++.......................................................",
"......................................................+++@+++......................................................",
".....................................................+++@@@+++.....................................................",
"....................................................+++@@@@@+++....................................................",
"...................................................+++@@@@@@@+++...................................................",
"..................................................+++@@@@@@@@@+++..................................................",
".................................................+++@@@@@@@@@@@+++.................................................",
"................................................+++@@@@@@@@@@@@@+++................................................",
"...............................................+++@@@@@@@@@@@@@@@+++...............................................",
"..............................................+++@@@@@@@@@@@@@@@@@+++..............................................",
".............................................+++@@@@@@@@@@@@@@@@@@@+++.............................................",
".................++++++++++++++++++++++++++++++@@@@@@@@@@@@@@@@@@@@@+++++++++++++++++++++++++++++++................",
".................+++++++++++++++++++++++++++++@@@@@@@@@@@@@@@@@@@@@@@++++++++++++++++++++++++++++++................",
".................++#######################+++@@@@@@@@@@@@@@@@@@@@@@@@@+++########################++................",
".................++######################+++@@@@@@@@@@@@@@@@@@@@@@@@@@@+++#######################++................",
".................++#####################+++@@@@@@@@@@@@@@@@@@@@@@@@@@@@@+++######################++................",
".................++####################+++@@@@@@@@@@@@@@@@@@@@@@@@@@@@@@@+++#####################++................",
".................++###################+++@@@@@@@@@@@@@@@@@@@@@@@@@@@@@@@@@+++####################++................",
".................++##################+++@@@@@@@@@@@@@@@@@@@@@@@@@@@@@@@@@@@+++###################++................",
".................++#################+++@@@@@@@@@@@@@@@@@@@@@@@@@@@@@@@@@@@@@+++##################++................",
".................++################+++@@@@@@@@@@@@@@@@@@@@@@@@@@@@@@@@@@@@@@@+++#################++................",
".................++###############+++@@@@@@@@@@@@@@@@@@@@@@@@@@@@@@@@@@@@@@@@@+++################++................",
".................++##############+++@@@@@@@@@@@@@@@@@@@@@@@@@@@@@@@@@@@@@@@@@@@+++###############++................",
".................++#############+++@@@@@@@@@@@@@@@@@@@@@@@@@@@@@@@@@@@@@@@@@@@@@+++##############++................",
".................++############+++@@@@@@@@@@@@@@@@@@@@@@@@@@@@@@@@@@@@@@@@@@@@@@@+++#############++................",
".................++############++@@@@@@@@@@@@@@@@@@@@@@@@@@@@@@@@@@@@@@@@@@@@@@@@@+++############++................",
".................++###########++@@@@@@@@@@@@@@@@@@@@@@@@@@@@@@@@@@@@@@@@@@@@@@@@@@@+++###########++................",
".................++##########+++@@@@@@@@@@@@@@@@@@@@@@@@@@@@@@@@@@@@@@@@@@@@@@@@@@@@+++##########++................",
".................++#########+++@@@@@@@@@@@@@@@@@@@@@@@@@@@@@@@@@@@@@@@@@@@@@@@@@@@@@@+++#########++................",
".................++########+++@@@@@@@@@@@@@@@@@@@@@@@@@@@@@@@@@@@@@@@@@@@@@@@@@@@@@@@@+++########++................",
".................++#######+++@@@@@@@@@@@@@@@@@@@@@@@@@@@@@@@@@@@@@@@@@@@@@@@@@@@@@@@@@@+++#######++................",
".................++######+++@@@@@@@..@@@@@@..@@@@@@@@@@@@@@@@@@@@@@@@@@@@@@@@@@@@@@@@@@@+++######++................",
".................++#####+++@@@@@@@@..@@@@@@..@@@@@@@@@@@@@@@@@@@@@@@@@@@@@@@@@@@@@@@@@@@@+++#####++................",
".................++####+++@@@@@@@@@..@@@@@@..@@@@@@@@@@@@@@@@@@@@@@@@@@@@@@@@@@@@@@@@@@@@@+++####++................",
".................++###+++@@@@@@@@@@..@@@@@@..@@..@....@@@@@.....@@.....@..@@@@..@@@@@@@@@@@+++###++................",
".................++##+++@@@@@@@@@@@..@@@@@@..@@...@@...@@@.@@@...@...@@@@.@@@@.@@@@@@@@@@@@@+++##++................",
".................++#+++@@@@@@@@@@@@..@@@@@@..@@..@@@@..@@@@@@@@..@..@@@@@..@@@.@@@@@@@@@@@@@@+++#++................",
".................+++++@@@@@@@@@@@@@..@@@@@@..@@..@@@@..@@@@@@@@..@..@@@@@..@@..@@@@@@@@@@@@@@@+++++................",
".................++++@@@@@@@@@@@@@@..@@@@@@..@@..@@@@..@@@@......@..@@@@@@.@@.@@@@@@@@@@@@@@@@@++++................",
".................+++@@@@@@@@@@@@@@@..@@@@@@..@@..@@@@..@@...@@@..@..@@@@@@.@@.@@@@@@@@@@@@@@@@@@+++................",
"................+++@@@@@@@@@@@@@@@@..@@@@@@..@@..@@@@..@@..@@@@..@..@@@@@@....@@@@@@@@@@@@@@@@@@@+++...............",
"...............+++@@@@@@@@@@@@@@@@@@..@@@@..@@@..@@@@..@@..@@@...@..@@@@@@@..@@@@@@@@@@@@@@@@@@@@@+++..............",
"..............+++@@@@@@@@@@@@@@@@@@@@......@@@@..@@@@..@@@....@..@..@@@@@@@..@@@@@@@@@@@@@@@@@@@@@@+++.............",
".............+++@@@@@@@@@@@@@@@@@@@@@@@@@@@@@@@@@@@@@@@@@@@@@@@@@@@@@@@@@@@..@@@@@@@@@@@@@@@@@@@@@@@+++............",
"............+++@@@@@@@@@@@@@@@@@@@@@@@@@@@@@@@@@@@@@@@@@@@@@@@@@@@@@@@@@@@@.@@@@@@@@@@@@@@@@@@@@@@@@@+++...........",
"...........+++@@@@@@@@@@@@@@@@@@@@@@@@@@@@@@@@@@@@@@@@@@@@@@@@@@@@@@@@@@@@..@@@@@@@@@@@@@@@@@@@@@@@@@@+++..........",
"..........+++@@@@@@@@@@@@@@@@@@@@@@@@@@@@@@@@@@@@@@@@@@@@@@@@@@@@@@@@@@@@..@@@@@@@@@@@@@@@@@@@@@@@@@@@@+++.........",
".........+++@@@@@@@@@@@@@@@@@@@@@@@@@@@@@@@@@@@@@@@@@@@@@@@@@@@@@@@@@@@@@@@@@@@@@@@@@@@@@@@@@@@@@@@@@@@@+++........",
"........+++@@@@@@@@@@@@@@@@@@@@@@@@@@@@@@@@@@@@@@@@@@@@@@@@@@@@@@@@@@@@@@@@@@@@@@@@@@@@@@@@@@@@@@@@@@@@@@+++.......",
".......+++@@@@@@@@@@@@@@@@@@@@@@@@@@@@@@@@@@@@@@@@@@@@@@@@@@@@@@@@@@@@@@@@@@@@@@@@@@@@@@@@@@@@@@@@@@@@@@@@+++......",
"......+++@@@@@@@@@@@@@@@@@@@@@@@@@@@@@@@@@@@@@@@@@@@@@@@@@@@@@@@@@@@@@@@@@@@@@@@@@@@@@@@@@@@@@@@@@@@@@@@@@@+++.....",
".....+++@@@@@@@@@@@@@@@@@@......@@@@@@@@@@@@@@@@@@@@@@@@@@@@@@@@@@@@@@@@@@@@@@@@@@@@@@@@@@@@@@@@@@@@@@@@@@@@+++....",
"....+++@@@@@@@@@@@@@@@@@@..@@@@..@@@@@@@@@@@@@@@@@@@@@@@@@@@@@@@@@@@@@@@..@@@@@@@@@@@@@@@@@@@@@@@@@@@@@@@@@@@+++...",
".....+++@@@@@@@@@@@@@@@@..@@@@@@..@@@@@@@@@@@@@@@@@@@@@@@@@@@@@@@@@@@@@@..@@@@@@@@@@@@@@@@@@@@@@@@@@@@@@@@@@+++....",
"......+++@@@@@@@@@@@@@@..@@@@@@@@..@..@....@@@@@....@@@.....@@@@.....@......@@@@.....@@@.....@@@@@@@@@@@@@@+++.....",
".......+++@@@@@@@@@@@@@..@@@@@@@@..@...@@@..@@@..@@..@@...@@@@@.@@@...@@..@@@@@..@@@..@@...@@@@@@@@@@@@@@@+++......",
"........+++@@@@@@@@@@@@..@@@@@@@@..@..@@@@@..@..@@@@..@..@@@@@@@@@@@..@@..@@@@..@@@@@..@..@@@@@@@@@@@@@@@+++.......",
".........+++@@@@@@@@@@@..@@@@@@@@..@..@@@@@..@..@@@@..@..@@@@@@@@@@@..@@..@@@@..@@@@@..@..@@@@@@@@@@@@@@+++........",
"..........+++@@@@@@@@@@..@@@@@@@@..@..@@@@@..@........@..@@@@@@@......@@..@@@@..@@@@@..@..@@@@@@@@@@@@@+++.........",
"...........+++@@@@@@@@@..@@@@@@@@..@..@@@@@..@..@@@@@@@..@@@@@...@@@..@@..@@@@..@@@@@..@..@@@@@@@@@@@@+++..........",
"............+++@@@@@@@@@..@@@@@@..@@..@@@@@..@..@@@@@@@..@@@@@..@@@@..@@..@@@@..@@@@@..@..@@@@@@@@@@@+++...........",
".............+++@@@@@@@@@..@@@@..@@@...@@@..@@@..@@@@@@..@@@@@..@@@...@@..@@@@@..@@@..@@..@@@@@@@@@@+++............",
"..............+++@@@@@@@@@......@@@@..@....@@@@@.....@@..@@@@@@....@..@@@...@@@@.....@@@..@@@@@@@@@+++.............",
"...............+++@@@@@@@@@@@@@@@@@@..@@@@@@@@@@@@@@@@@@@@@@@@@@@@@@@@@@@@@@@@@@@@@@@@@@@@@@@@@@@@+++..............",
"................+++@@@@@@@@@@@@@@@@@..@@@@@@@@@@@@@@@@@@@@@@@@@@@@@@@@@@@@@@@@@@@@@@@@@@@@@@@@@@@+++...............",
".................+++@@@@@@@@@@@@@@@@..@@@@@@@@@@@@@@@@@@@@@@@@@@@@@@@@@@@@@@@@@@@@@@@@@@@@@@@@@@+++................",
".................++++@@@@@@@@@@@@@@@..@@@@@@@@@@@@@@@@@@@@@@@@@@@@@@@@@@@@@@@@@@@@@@@@@@@@@@@@@++++................",
".................+++++@@@@@@@@@@@@@@@@@@@@@@@@@@@@@@@@@@@@@@@@@@@@@@@@@@@@@@@@@@@@@@@@@@@@@@@@+++++................",
".................++#+++@@@@@@@@@@@@@@@@@@@@@@@@@@@@@@@@@@@@@@@@@@@@@@@@@@@@@@@@@@@@@@@@@@@@@@+++#++................",
".................++##+++@@@@@@@@@@@@@@@@@@@@@@@@@@@@@@@@@@@@@@@@@@@@@@@@@@@@@@@@@@@@@@@@@@@@+++##++................",
".................++###+++@@@@@@@@@@@@@@@@@@@@@@@@@@@@@@@@@@@@@@@@@@@@@@@@@@@@@@@@@@@@@@@@@@+++###++................",
".................++####+++@@@@@@@@@@@@@@@@@@@@@@@@@@@@@@@@@@@@@@@@@@@@@@@@@@@@@@@@@@@@@@@@+++####++................",
".................++#####+++@@@@@@@@@@@@@@@@@@@@@@@@@@@@@@@@@@@@@@@@@@@@@@@@@@@@@@@@@@@@@@+++#####++................",
".................++######+++@@@@@@@@@@@@@@@@@@@@@@@@@@@@@@@@@@@@@@@@@@@@@@@@@@@@@@@@@@@@+++######++................",
".................++#######+++@@@@@@@@@@@@@@@@@@@@@@@@@@@@@@@@@@@@@@@@@@@@@@@@@@@@@@@@@@+++#######++................",
".................++########+++@@@@@@@@@@@@@@@@@@@@@@@@@@@@@@@@@@@@@@@@@@@@@@@@@@@@@@@@+++########++................",
".................++#########+++@@@@@@@@@@@@@@@@@@@@@@@@@@@@@@@@@@@@@@@@@@@@@@@@@@@@@@+++#########++................",
".................++##########+++@@@@@@@@@@@@@@@@@@@@@@@@@@@@@@@@@@@@@@@@@@@@@@@@@@@@+++##########++................",
".................++###########++@@@@@@@@@@@@@@@@@@@@@@@@@@@@@@@@@@@@@@@@@@@@@@@@@@@+++###########++................",
".................++############++@@@@@@@@@@@@@@@@@@@@@@@@@@@@@@@@@@@@@@@@@@@@@@@@@+++############++................",
".................++############+++@@@@@@@@@@@@@@@@@@@@@@@@@@@@@@@@@@@@@@@@@@@@@@@+++#############++................",
".................++#############+++@@@@@@@@@@@@@@@@@@@@@@@@@@@@@@@@@@@@@@@@@@@@@+++##############++................",
".................++##############+++@@@@@@@@@@@@@@@@@@@@@@@@@@@@@@@@@@@@@@@@@@@+++###############++................",
".................++###############+++@@@@@@@@@@@@@@@@@@@@@@@@@@@@@@@@@@@@@@@@@+++################++................",
".................++################+++@@@@@@@@@@@@@@@@@@@@@@@@@@@@@@@@@@@@@@@+++#################++................",
".................++#################+++@@@@@@@@@@@@@@@@@@@@@@@@@@@@@@@@@@@@@+++##################++................",
".................++##################+++@@@@@@@@@@@@@@@@@@@@@@@@@@@@@@@@@@@+++###################++................",
".................++###################+++@@@@@@@@@@@@@@@@@@@@@@@@@@@@@@@@@+++####################++................",
".................++####################+++@@@@@@@@@@@@@@@@@@@@@@@@@@@@@@@+++#####################++................",
".................++#####################+++@@@@@@@@@@@@@@@@@@@@@@@@@@@@@+++######################++................",
".................++######################+++@@@@@@@@@@@@@@@@@@@@@@@@@@@+++#######################++................",
".................++++++++++++++++++++++++++++@@@@@@@@@@@@@@@@@@@@@@@@@+++++++++++++++++++++++++++++................",
".................+++++++++++++++++++++++++++++@@@@@@@@@@@@@@@@@@@@@@@++++++++++++++++++++++++++++++................",
"............................................+++@@@@@@@@@@@@@@@@@@@@@+++............................................",
".............................................+++@@@@@@@@@@@@@@@@@@@+++.............................................",
"..............................................+++@@@@@@@@@@@@@@@@@+++..............................................",
"...............................................+++@@@@@@@@@@@@@@@+++...............................................",
"................................................+++@@@@@@@@@@@@@+++................................................",
".................................................+++@@@@@@@@@@@+++.................................................",
"..................................................+++@@@@@@@@@+++..................................................",
"...................................................+++@@@@@@@+++...................................................",
"....................................................+++@@@@@+++....................................................",
".....................................................+++@@@+++.....................................................",
"......................................................+++@+++......................................................",
".......................................................+++++.......................................................",
"........................................................+++........................................................",
".........................................................+.........................................................",
"...................................................................................................................",
"..................................................................................................................."};
