/* XPM */
static char * Value_xpm[] = {
"117 116 5 1",
" 	c None",
".	c #FFFFFF",
"+	c #000000",
"@	c #00C800",
"#	c #00FF00",
".....................................................................................................................",
".....................................................................................................................",
".....................................................................................................................",
".....................................................................................................................",
"..........................................................+..........................................................",
".........................................................+++.........................................................",
"........................................................+++++........................................................",
".......................................................+++@+++.......................................................",
"......................................................+++@@@+++......................................................",
".....................................................+++@@@@@+++.....................................................",
"....................................................+++@@@@@@@+++....................................................",
"...................................................+++@@@@@@@@@+++...................................................",
"..................................................+++@@@@@@@@@@@+++..................................................",
".................................................+++@@@@@@@@@@@@@+++.................................................",
"................................................+++@@@@@@@@@@@@@@@+++................................................",
"...............................................+++@@@@@@@@@@@@@@@@@+++...............................................",
"..............................................+++@@@@@@@@@@@@@@@@@@@+++..............................................",
"..................++++++++++++++++++++++++++++++@@@@@@@@@@@@@@@@@@@@@+++++++++++++++++++++++++++++++.................",
"..................+++++++++++++++++++++++++++++@@@@@@@@@@@@@@@@@@@@@@@++++++++++++++++++++++++++++++.................",
"..................++#######################+++@@@@@@@@@@@@@@@@@@@@@@@@@+++########################++.................",
"..................++######################+++@@@@@@@@@@@@@@@@@@@@@@@@@@@+++#######################++.................",
"..................++#####################+++@@@@@@@@@@@@@@@@@@@@@@@@@@@@@+++######################++.................",
"..................++####################+++@@@@@@@@@@@@@@@@@@@@@@@@@@@@@@@+++#####################++.................",
"..................++###################+++@@@@@@@@@@@@@@@@@@@@@@@@@@@@@@@@@+++####################++.................",
"..................++##################+++@@@@@@@@@@@@@@@@@@@@@@@@@@@@@@@@@@@+++###################++.................",
"..................++#################+++@@@@@@@@@@@@@@@@@@@@@@@@@@@@@@@@@@@@@+++##################++.................",
"..................++################+++@@@@@@@@@@@@@@@@@@@@@@@@@@@@@@@@@@@@@@@+++#################++.................",
"..................++###############+++@@@@@@@@@@@@@@@@@@@@@@@@@@@@@@@@@@@@@@@@@+++################++.................",
"..................++##############+++@@@@@@@@@@@@@@@@@@@@@@@@@@@@@@@@@@@@@@@@@@@+++###############++.................",
"..................++#############+++@@@@@@@@@@@@@@@@@@@@@@@@@@@@@@@@@@@@@@@@@@@@@+++##############++.................",
"..................++############+++@@@@@@@@@@@@@@@@@@@@@@@@@@@@@@@@@@@@@@@@@@@@@@@+++#############++.................",
"..................++###########+++@@@@@@@@@@@@@@@@@@@@@@@@@@@@@@@@@@@@@@@@@@@@@@@@@+++############++.................",
"..................++##########+++@@@@@@@@@@@@@@@@@@@@@@@@@@@@@@@@@@@@@@@@@@@@@@@@@@@+++###########++.................",
"..................++#########+++@@@@@@@@@@@@@@@@@@@@@@@@@@@@@@@@@@@@@@@@@@@@@@@@@@@@@+++##########++.................",
"..................++########+++@@@@@@@@@@@@@@@@@@@@@@@@@@@@@@@@@@@@@@@@@@@@@@@@@@@@@@@+++#########++.................",
"..................++#######+++@@@@@@@@@@@@@@@@@@@@@@@@@@@@@@@@@@@@@@@@@@@@@@@@@@@@@@@@@+++########++.................",
"..................++######+++@@@@@@@@@@@@@@@@@@@@@@@@@@@@@@@@@@@@@@@@@@@@@@@@@@@@@@@@@@@+++#######++.................",
"..................++#####+++@@@@@@@@@@@@@@@@@@@@@@@@@@@@@@@@@@@@@@@@@@@@@@@@@@@@@@@@@@@@@+++######++.................",
"..................++####+++@@@@@@@@@@@@@@@@@@@@@@@@@@@@@@@@@@@@@@@@@@@@@@@@@@@@@@@@@@@@@@@+++#####++.................",
"..................++###+++@@@@@@@@@@@@@@@@@@@@@@@@@@@@@@@@@@@@@@@@@@@@@@@@@@@@@@@@@@@@@@@@@+++####++.................",
"..................++##+++@@@@@@@@@@@@@@@@@@@@@@@@@@@@@@@@@@@@@@@@@@@@@@@@@@@@@@@@@@@@@@@@@@@+++###++.................",
"..................++#+++@@@@@@@@@@@@@@@@@@@@@@@@@@@@@@@@@@@@@@@@@@@@@@@@@@@@@@@@@@@@@@@@@@@@@+++##++.................",
"..................+++++@@@@@@@@@@@@@@@@@@@@@@@@@@@@@@@@@@@@@@@@@@@@@@@@@@@@@@@@@@@@@@@@@@@@@@@+++#++.................",
"..................++++@@@@@@@@@@@@@@@@@@@@@@@@@@@@@@@@@@@@@@@@@@@@@@@@@@@@@@@@@@@@@@@@@@@@@@@@@+++++.................",
"..................+++@@@@@@@@@@@@@@@@@@@@@@@@@@@@@@@@@@@@@@@@@@@@@@@@@@@@@@@@@@@@@@@@@@@@@@@@@@@++++.................",
".................+++@@@@@@@@@@@@@@@@@@@@@@@@@@@@@@@@@@@@@@@@@@@@@@@@@@@@@@@@@@@@@@@@@@@@@@@@@@@@@+++.................",
"................+++@@@@@@@@@@@@@@@@@@@@@@@@@@@@@@@@@@@@@@@@@@@@@@@@@@@@@@@@@@@@@@@@@@@@@@@@@@@@@@@+++................",
"...............+++@@@@@@@@@@@@@@@@@@@@@@@@@@@@@@@@@@@@@@@@@@@@@@@@@@@@@@@@@@@@@@@@@@@@@@@@@@@@@@@@@+++...............",
"..............+++@@@@@@@@@@@@@@@@@@@@@@@@@@@@@@@@@@@@@@@@@@@@@@@@@@@@@@@@@@@@@@@@@@@@@@@@@@@@@@@@@@@+++..............",
".............+++@@@@@@@@@@@@@@@@@@@@@@@@@@@@@@@@@@@@@@@@@@@@@@@@@@@@@@@@@@@@@@@@@@@@@@@@@@@@@@@@@@@@@+++.............",
"............+++@@@@@@@@@@@@@@@@@@@@@@@@@@@@@@@@@@@@@@@@@@...@@@@@@@@@@@@@@@@@@@@@@@@@@@@@@@@@@@@@@@@@@+++............",
"...........+++@@@@@@@@@@@@@@@@@@...@@@@@@@...@@@@@@@@@@@@...@@@@@@@@@@@@@@@@@@@@@@@@@@@@@@@@@@@@@@@@@@@+++...........",
"..........+++@@@@@@@@@@@@@@@@@@@@...@@@@@@..@@@@@@@@@@@@@...@@@@@@@@@@@@@@@@@@@@@@@@@@@@@@@@@@@@@@@@@@@@+++..........",
".........+++@@@@@@@@@@@@@@@@@@@@@...@@@@@...@@@@@@@@@@@@@...@@@@@@@@@@@@@@@@@@@@@@@@@@@@@@@@@@@@@@@@@@@@@+++.........",
"........+++@@@@@@@@@@@@@@@@@@@@@@...@@@@@...@@@@@@@@@@@@@...@@@@@@@@@@@@@@@@@@@@@@@@@@@@@@@@@@@@@@@@@@@@@@+++........",
".......+++@@@@@@@@@@@@@@@@@@@@@@@@..@@@@@..@@@@......@@@@...@@@...@@@@...@@@@.....@@@@@@@@@@@@@@@@@@@@@@@@@+++.......",
"......+++@@@@@@@@@@@@@@@@@@@@@@@@@...@@@...@@@........@@@...@@@...@@@@...@@........@@@@@@@@@@@@@@@@@@@@@@@@@+++......",
".....+++@@@@@@@@@@@@@@@@@@@@@@@@@@...@@@...@@@@@@@@@...@@...@@@...@@@@...@@...@@...@@@@@@@@@@@@@@@@@@@@@@@@@@+++.....",
"....+++@@@@@@@@@@@@@@@@@@@@@@@@@@@@..@@@..@@@@@........@@...@@@...@@@@...@...@@@@...@@@@@@@@@@@@@@@@@@@@@@@@@@+++....",
".....+++@@@@@@@@@@@@@@@@@@@@@@@@@@@...@...@@@@.........@@...@@@...@@@@...@..........@@@@@@@@@@@@@@@@@@@@@@@@@+++.....",
"......+++@@@@@@@@@@@@@@@@@@@@@@@@@@...@...@@@....@@@...@@...@@@...@@@@...@..........@@@@@@@@@@@@@@@@@@@@@@@@+++......",
".......+++@@@@@@@@@@@@@@@@@@@@@@@@@@..@..@@@@...@@@@...@@...@@@...@@@@...@...@@@@@@@@@@@@@@@@@@@@@@@@@@@@@@+++.......",
"........+++@@@@@@@@@@@@@@@@@@@@@@@@@.....@@@@...@@@....@@...@@@...@@@....@@...@@@@.@@@@@@@@@@@@@@@@@@@@@@@+++........",
".........+++@@@@@@@@@@@@@@@@@@@@@@@@.....@@@@@.........@@...@@@@.........@@........@@@@@@@@@@@@@@@@@@@@@@+++.........",
"..........+++@@@@@@@@@@@@@@@@@@@@@@@@...@@@@@@@....@...@@...@@@@@....@...@@@@.....@@@@@@@@@@@@@@@@@@@@@@+++..........",
"...........+++@@@@@@@@@@@@@@@@@@@@@@@@@@@@@@@@@@@@@@@@@@@@@@@@@@@@@@@@@@@@@@@@@@@@@@@@@@@@@@@@@@@@@@@@@+++...........",
"............+++@@@@@@@@@@@@@@@@@@@@@@@@@@@@@@@@@@@@@@@@@@@@@@@@@@@@@@@@@@@@@@@@@@@@@@@@@@@@@@@@@@@@@@@+++............",
".............+++@@@@@@@@@@@@@@@@@@@@@@@@@@@@@@@@@@@@@@@@@@@@@@@@@@@@@@@@@@@@@@@@@@@@@@@@@@@@@@@@@@@@@+++.............",
"..............+++@@@@@@@@@@@@@@@@@@@@@@@@@@@@@@@@@@@@@@@@@@@@@@@@@@@@@@@@@@@@@@@@@@@@@@@@@@@@@@@@@@@+++..............",
"...............+++@@@@@@@@@@@@@@@@@@@@@@@@@@@@@@@@@@@@@@@@@@@@@@@@@@@@@@@@@@@@@@@@@@@@@@@@@@@@@@@@@+++...............",
"................+++@@@@@@@@@@@@@@@@@@@@@@@@@@@@@@@@@@@@@@@@@@@@@@@@@@@@@@@@@@@@@@@@@@@@@@@@@@@@@@@+++................",
".................+++@@@@@@@@@@@@@@@@@@@@@@@@@@@@@@@@@@@@@@@@@@@@@@@@@@@@@@@@@@@@@@@@@@@@@@@@@@@@@+++.................",
"..................+++@@@@@@@@@@@@@@@@@@@@@@@@@@@@@@@@@@@@@@@@@@@@@@@@@@@@@@@@@@@@@@@@@@@@@@@@@@@++++.................",
"..................++++@@@@@@@@@@@@@@@@@@@@@@@@@@@@@@@@@@@@@@@@@@@@@@@@@@@@@@@@@@@@@@@@@@@@@@@@@+++++.................",
"..................+++++@@@@@@@@@@@@@@@@@@@@@@@@@@@@@@@@@@@@@@@@@@@@@@@@@@@@@@@@@@@@@@@@@@@@@@@+++#++.................",
"..................++#+++@@@@@@@@@@@@@@@@@@@@@@@@@@@@@@@@@@@@@@@@@@@@@@@@@@@@@@@@@@@@@@@@@@@@@+++##++.................",
"..................++##+++@@@@@@@@@@@@@@@@@@@@@@@@@@@@@@@@@@@@@@@@@@@@@@@@@@@@@@@@@@@@@@@@@@@+++###++.................",
"..................++###+++@@@@@@@@@@@@@@@@@@@@@@@@@@@@@@@@@@@@@@@@@@@@@@@@@@@@@@@@@@@@@@@@@+++####++.................",
"..................++####+++@@@@@@@@@@@@@@@@@@@@@@@@@@@@@@@@@@@@@@@@@@@@@@@@@@@@@@@@@@@@@@@+++#####++.................",
"..................++#####+++@@@@@@@@@@@@@@@@@@@@@@@@@@@@@@@@@@@@@@@@@@@@@@@@@@@@@@@@@@@@@+++######++.................",
"..................++######+++@@@@@@@@@@@@@@@@@@@@@@@@@@@@@@@@@@@@@@@@@@@@@@@@@@@@@@@@@@@+++#######++.................",
"..................++#######+++@@@@@@@@@@@@@@@@@@@@@@@@@@@@@@@@@@@@@@@@@@@@@@@@@@@@@@@@@+++########++.................",
"..................++########+++@@@@@@@@@@@@@@@@@@@@@@@@@@@@@@@@@@@@@@@@@@@@@@@@@@@@@@@+++#########++.................",
"..................++#########+++@@@@@@@@@@@@@@@@@@@@@@@@@@@@@@@@@@@@@@@@@@@@@@@@@@@@@+++##########++.................",
"..................++##########+++@@@@@@@@@@@@@@@@@@@@@@@@@@@@@@@@@@@@@@@@@@@@@@@@@@@+++###########++.................",
"..................++###########+++@@@@@@@@@@@@@@@@@@@@@@@@@@@@@@@@@@@@@@@@@@@@@@@@@+++############++.................",
"..................++############+++@@@@@@@@@@@@@@@@@@@@@@@@@@@@@@@@@@@@@@@@@@@@@@@+++#############++.................",
"..................++#############+++@@@@@@@@@@@@@@@@@@@@@@@@@@@@@@@@@@@@@@@@@@@@@+++##############++.................",
"..................++##############+++@@@@@@@@@@@@@@@@@@@@@@@@@@@@@@@@@@@@@@@@@@@+++###############++.................",
"..................++###############+++@@@@@@@@@@@@@@@@@@@@@@@@@@@@@@@@@@@@@@@@@+++################++.................",
"..................++################+++@@@@@@@@@@@@@@@@@@@@@@@@@@@@@@@@@@@@@@@+++#################++.................",
"..................++#################+++@@@@@@@@@@@@@@@@@@@@@@@@@@@@@@@@@@@@@+++##################++.................",
"..................++##################+++@@@@@@@@@@@@@@@@@@@@@@@@@@@@@@@@@@@+++###################++.................",
"..................++###################+++@@@@@@@@@@@@@@@@@@@@@@@@@@@@@@@@@+++####################++.................",
"..................++####################+++@@@@@@@@@@@@@@@@@@@@@@@@@@@@@@@+++#####################++.................",
"..................++#####################+++@@@@@@@@@@@@@@@@@@@@@@@@@@@@@+++######################++.................",
"..................++######################+++@@@@@@@@@@@@@@@@@@@@@@@@@@@+++#######################++.................",
"..................++++++++++++++++++++++++++++@@@@@@@@@@@@@@@@@@@@@@@@@+++++++++++++++++++++++++++++.................",
"..................+++++++++++++++++++++++++++++@@@@@@@@@@@@@@@@@@@@@@@++++++++++++++++++++++++++++++.................",
".............................................+++@@@@@@@@@@@@@@@@@@@@@+++.............................................",
"..............................................+++@@@@@@@@@@@@@@@@@@@+++..............................................",
"...............................................+++@@@@@@@@@@@@@@@@@+++...............................................",
"................................................+++@@@@@@@@@@@@@@@+++................................................",
".................................................+++@@@@@@@@@@@@@+++.................................................",
"..................................................+++@@@@@@@@@@@+++..................................................",
"...................................................+++@@@@@@@@@+++...................................................",
"....................................................+++@@@@@@@+++....................................................",
".....................................................+++@@@@@+++.....................................................",
"......................................................+++@@@+++......................................................",
".......................................................+++@+++.......................................................",
"........................................................+++++........................................................",
".........................................................+++.........................................................",
"..........................................................+..........................................................",
".....................................................................................................................",
".....................................................................................................................",
"....................................................................................................................."};
