/* XPM */
static char * test_node_icon_default_1_xpm[] = {
"39 51 11 1",
" 	c None",
".	c #FFFFFF",
"+	c #E3E3E3",
"@	c #AAAAAA",
"#	c #000000",
"$	c #727272",
"%	c #1D1D1D",
"&	c #555555",
"*	c #8E8E8E",
"=	c #393939",
"-	c #C7C7C7",
".......................................",
".......................................",
".......................................",
".......................................",
".......................................",
".......................................",
".......................................",
".......................................",
".......................................",
".......................................",
".............+@@@@@@@@@+...............",
".............@#########$@+.............",
".............@##%&&&&%###$+............",
".............@##&....*&%##@............",
"............+$#%*......*%#$+...........",
"............@##&........&##@...........",
"............@##&........&##@...........",
"............@##&........&##@...........",
"............=#=-........&##@...........",
"............##&.........&##@...........",
"............##&.........&##@...........",
"............##&........*%#$+...........",
"...........&#=-........&##@............",
"...........##&........*%##@............",
"...........##&.......*%##$+............",
"...........##&......&###@..............",
"..........##&.....@####@...............",
"..........############@................",
"..........##########@..................",
".......................................",
".......................................",
"...............@&.......*#@............",
"...............*$.......%*.............",
"............*%%%@.*%#$.&##.............",
"...........@&-*#+@&-*%.-#+.............",
"..........-%+.@#-%=&=#.@#..............",
"..........@#..$=@#@@@-.&@..............",
"..........+=-*#*+=-*=+.%+..............",
"...........-&$&-.-&$+..&...............",
".......................................",
".......................................",
".......................................",
".......................................",
".......................................",
".......................................",
".......................................",
".......................................",
".......................................",
".......................................",
".......................................",
"......................................."};
