/* XPM */
static char *document[]={
"18 22 4 1",
"a c #000000",
". c #333333",
"b c #999999",
"# c #ffffff",
".............#####",
".##########.#.####",
".##########.##.###",
".##########.###.##",
".##########.####.#",
".##aaaaaa##a.a.a.a",
".##########aaaaaaa",
".##aaaaaa####bbbba",
".#############bbba",
".##aaaaaaaaaa###ba",
".###############ba",
".##aaaaaaaaaa###ba",
".###############ba",
".##aaaaaaaaaa###ba",
".###############ba",
".#####aaaaaaa###ba",
".###############ba",
".#####aaaaaaa###ba",
".###############ba",
".###############ba",
"..bbbbbbbbbbbbbb.a",
"##aaaaaaaaaaaaaaaa"};
