/* XPM */
static char * test_node_icon_red_1_xpm[] = {
"39 51 14 1",
" 	c None",
".	c #FFFFFF",
"+	c #FFE9E9",
"@	c #FFADAD",
"#	c #FFAAAA",
"$	c #FFC7C7",
"%	c #FFABAB",
"&	c #FF0000",
"*	c #FF5555",
"=	c #FF3939",
"-	c #FFE3E3",
";	c #FF7272",
">	c #FF1D1D",
",	c #FF8E8E",
".......................................",
".......................................",
".......................................",
".......................................",
".......................................",
".......................................",
".......................................",
".......................................",
".......................................",
".......................................",
".......................................",
"..............+@#$........$##..........",
"..............%&&*........*&&..........",
"..............#&&=$.......*&&..........",
"..............#&&&*.......*&&..........",
".............-;&&&=$.....$=&=..........",
".............#&&>=&*.....*&&#..........",
".............#&&*#&=$....*&&#..........",
".............#&=$#&&*....*&&#..........",
".............=&*.#&&*...,>&;-..........",
".............&&*.-;&>$..*&&#...........",
".............&&*..#&&#..*&&#...........",
".............&&*..-;&#..*&&#...........",
"............*&=$...#&=$.*&;-...........",
"............&&*....#&&#,>&#............",
"............&&*....-;&#*&&#............",
"............&&*.....#&&&&&#............",
"...........&&*.......*&&&#.............",
"...........&&*.......*&&&#.............",
"...........&&*........*&&#.............",
".......................................",
".......................................",
"..........................*#...........",
"..........................=$...........",
".............&;*.,>&;..*&=&............",
"............$&*$#*$,>.*,-==............",
"............#*.$>=*=&,=..**............",
"............*#.#&###$**..>,............",
"...........$>-.-=$,=-$>.=&-............",
"...........$*...$*;-..,*;*.............",
".......................................",
".......................................",
".......................................",
".......................................",
".......................................",
".......................................",
".......................................",
".......................................",
".......................................",
".......................................",
"......................................."};
