/* XPM */
static char * test_node_icon_blue_1_xpm[] = {
"39 51 25 1",
" 	c None",
".	c #FFFFFF",
"+	c #E3E1FC",
"@	c #AAA8FB",
"#	c #AAACFE",
"$	c #C7C7FE",
"%	c #C7C8FF",
"&	c #AAACFF",
"*	c #0008FF",
"=	c #555AFE",
"-	c #555AFF",
";	c #393FFF",
">	c #E3E3FF",
",	c #7276FF",
"'	c #1D24FF",
")	c #8E91FF",
"!	c #5558FD",
"~	c #553CE1",
"{	c #FFFEFE",
"]	c #392DED",
"^	c #C7BEF4",
"/	c #FFFCFC",
"(	c #5557FC",
"_	c #8E90FE",
":	c #1D23FE",
".......................................",
".......................................",
".......................................",
".......................................",
".......................................",
".......................................",
".......................................",
".......................................",
".......................................",
".......................................",
".......................................",
"..............+@#$........%&&..........",
"..............&**=........-**..........",
"..............&**;%.......-**..........",
"..............&***-.......-**..........",
".............>,***;%.....%;*;..........",
".............&**';*-.....-**&..........",
".............&**-&*;%....-**&..........",
".............&*;%&**-....-**&..........",
".............;*-.&**-...)'*,>..........",
".............**-.>,*'%..-**&...........",
".............**-..&**&..-**&...........",
".............**-..>,*&..-**&...........",
"............-*;%...&*;%.-*,>...........",
"............**-....&**&)'*&............",
"............**-....>,*&-**&............",
"............**-.....&*****&............",
"...........**-.......-***&.............",
"...........**!.......=***&.............",
"...........**~........=**&.............",
".......................................",
"..........--....--.....................",
"..........;,....;,.........{...........",
"..........*'*'..*&&*..*..-**%..........",
".........%')>]^%;>,,.);.-)>;,..........",
".........&-./(&&-.-&.--)*--'-..........",
".........-&._:.-&.*.>*&-;&&&>..........",
"........%',%:_%'>.*.'*>%'.;,...........",
"........%-,=#{%-..&-&-..)-)............",
"...........{{..........................",
".......................................",
".......................................",
".......................................",
".......................................",
".......................................",
".......................................",
".......................................",
".......................................",
".......................................",
".......................................",
"......................................."};
