/* XPM */
static char * giant_xpm[] = {
"32 32 138 2",
"  	c None",
". 	c #FFFFFF",
"+ 	c #F8F8F8",
"@ 	c #898989",
"# 	c #2B2B2B",
"$ 	c #0D0D0D",
"% 	c #262626",
"& 	c #7D7D7D",
"* 	c #F3F3F3",
"= 	c #434343",
"- 	c #000000",
"; 	c #343434",
"> 	c #F0F0F0",
", 	c #818181",
"' 	c #6A6A6A",
") 	c #FEFEFE",
"! 	c #212121",
"~ 	c #0E0E0E",
"{ 	c #F9F9F9",
"] 	c #F7F7F7",
"^ 	c #020202",
"/ 	c #E1E1E1",
"( 	c #FCFCFC",
"_ 	c #121212",
": 	c #030303",
"< 	c #F1F1F1",
"[ 	c #5B5B5B",
"} 	c #454545",
"| 	c #171717",
"1 	c #D0D0D0",
"2 	c #D7D7D7",
"3 	c #383838",
"4 	c #303030",
"5 	c #CBCBCB",
"6 	c #F5F5F5",
"7 	c #AEAEAE",
"8 	c #C5C5C5",
"9 	c #BCBCBC",
"0 	c #3B3B3B",
"a 	c #5F5F5F",
"b 	c #8D8D8D",
"c 	c #999999",
"d 	c #6E6E6E",
"e 	c #9D9D9D",
"f 	c #868686",
"g 	c #CCCCCC",
"h 	c #B6B6B6",
"i 	c #C0C0C0",
"j 	c #FDFDFD",
"k 	c #464646",
"l 	c #949494",
"m 	c #606060",
"n 	c #666666",
"o 	c #080808",
"p 	c #A4A4A4",
"q 	c #A1A1A1",
"r 	c #B0B0B0",
"s 	c #ADADAD",
"t 	c #808080",
"u 	c #A5A5A5",
"v 	c #E0E0E0",
"w 	c #494949",
"x 	c #7C7C7C",
"y 	c #BBBBBB",
"z 	c #A8A8A8",
"A 	c #A9A9A9",
"B 	c #797979",
"C 	c #D9D9D9",
"D 	c #515151",
"E 	c #F2F2F2",
"F 	c #2E2E2E",
"G 	c #858585",
"H 	c #353535",
"I 	c #5D5D5D",
"J 	c #7F7F7F",
"K 	c #484848",
"L 	c #747474",
"M 	c #060606",
"N 	c #8E8E8E",
"O 	c #8B8B8B",
"P 	c #363636",
"Q 	c #242424",
"R 	c #888888",
"S 	c #3C3C3C",
"T 	c #5E5E5E",
"U 	c #D4D4D4",
"V 	c #E4E4E4",
"W 	c #BDBDBD",
"X 	c #DCDCDC",
"Y 	c #D8D8D8",
"Z 	c #111111",
"` 	c #090909",
" .	c #EBEBEB",
"..	c #010101",
"+.	c #727272",
"@.	c #151515",
"#.	c #DADADA",
"$.	c #6F6F6F",
"%.	c #929292",
"&.	c #282828",
"*.	c #EDEDED",
"=.	c #232323",
"-.	c #616161",
";.	c #3F3F3F",
">.	c #FAFAFA",
",.	c #424242",
"'.	c #1E1E1E",
").	c #1F1F1F",
"!.	c #E7E7E7",
"~.	c #323232",
"{.	c #A3A3A3",
"].	c #626262",
"^.	c #101010",
"/.	c #C7C7C7",
"(.	c #DDDDDD",
"_.	c #131313",
":.	c #C2C2C2",
"<.	c #676767",
"[.	c #979797",
"}.	c #B8B8B8",
"|.	c #141414",
"1.	c #636363",
"2.	c #878787",
"3.	c #0A0A0A",
"4.	c #313131",
"5.	c #373737",
"6.	c #F6F6F6",
"7.	c #181818",
"8.	c #0C0C0C",
"9.	c #161616",
"0.	c #292929",
"a.	c #2C2C2C",
"b.	c #C6C6C6",
"c.	c #040404",
"d.	c #D6D6D6",
"e.	c #0F0F0F",
"f.	c #565656",
"g.	c #9C9C9C",
". . . . . . . . . . . + @ # $ % & * . . . . . . . . . . . . . . ",
". . . . . . . . . . + = - - - - - ; > . . . . . . . . . . . . . ",
". . . . . . . . . . , - - - - - - - ' . . . . . . . . . . . . . ",
". . . . . . . . . ) ! - - - - - - - ~ { . . . . . . . . . . . . ",
". . . . . . . . . ] ^ - - - - - - - - / . . . . . . . . . . . . ",
". . . . . . . . . ( _ - - - - - - - : < . . . . . . . . . . . . ",
". . . . . . . . . . [ - - - - - - - } . . . . . . . . . . . . . ",
". . . . . . . . . . / | - - - - - $ 1 . . . . . . . . . . . . . ",
". . . . . . . . . . . 2 3 - - - 4 5 . . . . . . . . . . . . . . ",
". . . . . . . . . 6 7 8 9 ^ 0 - a b c d e f & e g h h i . . . . ",
". . . . . . . . j k l m n o g - - p 8 - q r ; q s t 4 u . . . . ",
". . . . . . . . v w ] f x o g - ~ y z % q A B q 1 C D . . . . . ",
". . . . . . . . E F > G H o g - I C 1 J q 0 g q 1 C D . . . . . ",
". . . . . . . . . 7 K L m M N - O P Q q R S T R U V f . . . . . ",
". . . . . . . . . . . . W - - - X . . . . . . . . . . . . . . . ",
". . . . . . . . . . . . W - - - X . . . . . . . . . . . . . . . ",
". . . . . . . . . . . . W - - - X . . . . . . . . . . . . . . . ",
". . . . . . . . . . . . W - - - X . . . . . . . . . . . . . . . ",
". . . . . . . . . . . . W - - - X . . . . . . . . . . . . . . . ",
". . . . . . . . . . . . p - - - e . . . . . . . . . . . . . . . ",
". . . . . . . . . . . Y Z - - - ` i . . . . . . . . . . . . . . ",
". . . . . . . . . .  .Q ` ..+.M - @.#.. . . . . . . . . . . . . ",
". . . . . . . . . ] 0 0 3 $.. %.- - &.*.. . . . . . . . . . . . ",
". . . . . . . . j [ =.-.;.>.. ) T - - ,.+ . . . . . . . . . . . ",
". . . . . . . . t '.-.).!.. . . 6 ~.- - m ) . . . . . . . . . . ",
". . . . . . . {.Z ].^./.. . . . . (._.- - G . . . . . . . . . . ",
". . . . . . :.$ <.$ [.. . . . . . . }.: - : A . . . . . . . . . ",
". . . . . #.|.T | 1.) . . . . . . . . 2.- - 3.8 . . . . . . . . ",
". . . . *.&.4.0 5.6.. . . . . . . . . j D - - 7.(.. . . . . . . ",
". . . . w - 8.9.v . . . . . . . . . . . > 0.- - a.> . . . . . . ",
". . . . b.@.c.9 . . . . . . . . . . . . . d.e.- f.] . . . . . . ",
". . . . . d.g.. . . . . . . . . . . . . . . s d ( . . . . . . . "};
