/* XPM */
static char * IML_Root_icon_1_xpm[] = {
"39 51 11 1",
" 	c None",
".	c #FF0000",
"+	c #FFAAAA",
"@	c #FFFFFF",
"#	c #FFC6C6",
"$	c #FF7171",
"%	c #FF5555",
"&	c #FF3838",
"*	c #FF1C1C",
"=	c #FFE2E2",
"-	c #FF8D8D",
".......................................",
".......................................",
".......................................",
".......................................",
".......................................",
".......................................",
"............+@@@@@@@@@@@@@#$...........",
"............#@@@@@@@@@@@@@@@+..........",
"............@@@@@@@@@@@@@@@@@$.........",
"...........%@@@@@@@@@@@@@@@@@#.........",
"...........$@@@@%......&+@@@@@.........",
"...........+@@@@*........=@@@@.........",
"...........=@@@=.........+@@@#.........",
"...........@@@@+.........=@@@-.........",
"..........%@@@@$........$@@@@*.........",
"..........-@@@@%......*-@@@@%..........",
"..........+@@@@@@@@@@@@@@@@%...........",
"..........@@@@@@@@@@@@@@@-*............",
".........*@@@@@@@@@@@@@@@#*............",
".........%@@@@@@@@@@@@@@@@=*...........",
".........+@@@@&......%=@@@@%...........",
".........#@@@@........%@@@@%...........",
".........@@@@#........$@@@@............",
"........&@@@@-........#@@@@............",
"........%@@@@%........@@@@+............",
"........+@@@@*.......%@@@@-............",
"........=@@@@........-@@@@%............",
"........@@@@+........+@@@@.............",
".......%@@@@-........+@@@@-............",
".......*%%%%*........*%%%%&............",
".......................................",
".......................................",
".......................................",
".......$++++*..*-++&...&++-*.$+++=@....",
".......@+%$@-.&=+%+@&.$@$%==.$%##%%....",
"......*@%..++.=+...#+&@%..*@%..@-......",
"......%@-%$@*%@*...+++#....@%.*@%......",
"......-@++=+.++....=$@%...&@*.%@*......",
"......#+..$@.+#...-@*@$...=#..+@.......",
"......@-..++.&@+%-@%.-@$%#=*..#+.......",
".....*+&..$$..&++-&...$++$*...+$.......",
".......................................",
".......................................",
".......................................",
".......................................",
".......................................",
".......................................",
".......................................",
".......................................",
".......................................",
"......................................."};
