/* XPM */
static char * Sequence_Item_icon_1_xpm[] = {
"39 51 11 1",
" 	c None",
".	c #FFFFFF",
"+	c #E3E3E3",
"@	c #8E8E8E",
"#	c #555555",
"$	c #000000",
"%	c #1D1D1D",
"&	c #AAAAAA",
"*	c #727272",
"=	c #C7C7C7",
"-	c #393939",
".......................................",
".......................................",
".......................................",
".......................................",
".......................................",
".......................................",
".......................................",
".............+@#$$$$$%#&...............",
"............@$$$$$$$$$$$%&.............",
"...........#$$$%*&&&&#$$$$&............",
"..........&$$$#.......+#$$$=...........",
"..........-$$-..........-$$-...........",
".........+$$$=..........=$$$+..........",
".........&$$$............$$$&..........",
".........&$$$............#$$&..........",
".........&$$$=.........................",
"..........$$$%=........................",
"..........*$$$$-&......................",
"..........+%$$$$$$-*&..................",
"...........+#$$$$$$$$$#@+..............",
".............+@-$$$$$$$$$-=............",
".................&*-$$$$$$$&...........",
"....................+&#$$$$$=..........",
".......................+#$$$-..........",
".........................#$$$+.........",
"........&$$$.............+$$$&.........",
"........=$$$+.............$$$&.........",
".........$$$&............+$$$=.........",
".........#$$%............*$$%..........",
".........=$$$#..........&$$$*..........",
"..........*$$$%@+.....=*$$$%+..........",
"...........#$$$$$$$$$$$$$$%=...........",
"............@$$$$$$$$$$$$-+............",
".............+@#$$$$$$-*=..............",
".......................................",
".......................................",
".......................................",
".......................................",
"...+#*+.@#+.&#@=@..@.@#+.@**.+#*.+**...",
"...#+==@&+-+#.#&#..#@&+-.%.@&#+@&#+&*..",
"...&##+###%&&.&&#..####%.#.&&#...%###..",
"...@.+#*+.*=#.#&#.&#*+.*.#.&&#.&=#.+@..",
"...+##++*#&.@##&&#*=+*#&.@.===#*.=##+..",
"..............&&.......................",
"..............++.......................",
".......................................",
".......................................",
".......................................",
".......................................",
".......................................",
"......................................."};
