/* XPM */
static char * T_Node_icon_1_xpm[] = {
"39 51 12 1",
" 	c None",
".	c #FFFFFF",
"+	c #FFAAAA",
"@	c #FF0000",
"#	c #FFC7C7",
"$	c #FF5555",
"%	c #FF1D1D",
"&	c #FF3939",
"*	c #FEFEFF",
"=	c #FFE3E3",
"-	c #FF8E8E",
";	c #FF7272",
".......................................",
".......................................",
".......................................",
".......................................",
".......................................",
".......................................",
".......................................",
".......................................",
".........+@@@@@@@@@@@@@@@@@@...........",
".........+@@@@@@@@@@@@@@@@@@...........",
".........#$$$$$$$%@@&$$$$$$$...........",
".................$@@+.......*..........",
".................$@@+.......*..........",
".................$@@+..................",
".................$@@+..................",
".................$@@+..................",
".................$@@+..................",
".................$@@+..................",
".................$@@+..................",
".................$@@+..................",
".................$@@+..................",
".................$@@+..................",
".................$@@+..................",
".................$@@+..................",
".................$@@+..................",
".................$@@+..................",
".................$@@+..................",
".................$@@+..................",
".................$@@+..................",
".................$@@+..................",
".................$@@+..................",
".................#++=..................",
".......................................",
".......................................",
".......................................",
".......................................",
"......-$%$-.....@=.++.......++.........",
"........$.......&;.++.;$=.+$;+=;;......",
"........$.......$++++-+=$#$.$+$=+;.....",
"........$.......$.$-+$..$++.++%$$$.....",
"........$.......$.=%+;+=&#$.$+$.=-.....",
"........-.......-..+#=;$#.-$-=#$$=.....",
"..........=++++#.......................",
"..........=++++#.......................",
".......................................",
".......................................",
".......................................",
".......................................",
".......................................",
".......................................",
"......................................."};
