/* XPM */
static char * DEFAULT_xpm[] = {
"123 123 5 1",
" 	c None",
".	c #FFFFFF",
"+	c #646464",
"@	c #969696",
"#	c #000000",
"...........................................................................................................................",
"...........................................................................................................................",
"...........................................................................................................................",
"...........................................................................................................................",
"...........................................................................................................................",
"...........................................................................................................................",
"...........................................................................................................................",
"...................................++......................................................................................",
"..................................+++++....................................................................................",
".................................+++++++...................................................................................",
"................................++++.++++..................................................................................",
"...............................++++...++++.................................................................................",
"..............................++++.....++++................................................................................",
".............................++++.......++++...............................................................................",
"............................++++.........++++..............................................................................",
"...........................++++...........++++.............................................................................",
"..........................++++.............++++............................................................................",
".........................++++...............++++...........................................................................",
"........................++++.................++++..........................................................................",
".......................++++...................++++.........................................................................",
"......................++++.....................++++........................................................................",
".....................++++.......................++++.......................................................................",
"....................++++.........................++++......................................................................",
"...................++++...........................++++.....................................................................",
"..................++++.............................++++....++++++++++++++++++++++++++++++++++++++++++......................",
".................++++...............................++++....+@@@@@@@@@@@@@@@@@@@@@@@@@@@@@@@@@@@@@@@+......................",
"................++++.................................++++....+@@@@@@@@@@@@@@@@@@@@@@@@@@@@@@@@@@@@@@+......................",
"...............++++..................#................++++....+@@@@@@@@@@@@@@@@@@@@@@@@@@@@@@@@@@@@@+......................",
"..............++++..................###................++++....+@@@@@@@@@@@@@@@@@@@@@@@@@@@@@@@@@@@@+......................",
".............++++..................#####................++++....+@@@@@@@@@@@@@@@@@@@@@@@@@@@@@@@@@@@+......................",
"............++++..................####.#.................++++....+@@@@@@@@@@@@@@@@@@@@@@@@@@@@@@@@@@+......................",
"...........++++..................####..##.................++++....+@@@@@@@@@@@@@@@@@@@@@@@@@@@@@@@@@+......................",
"..........++++..................####....##.................++++....+@@@@@@@@@@@@@@@@@@@@@@@@@@@@@@@@+......................",
".........++++..................####.....##..................++++....+@@@@@@@@@@@@@@@@@@@@@@@@@@@@@@@+......................",
"........++++..................####......##...................++++....+@@@@@@@@@@@@@@@@@@@@@@@@@@@@@@+......................",
".......++++..................####.......##....................++++....+@@@@@@@@@@@@@@@@@@@@@@@@@@@@@+......................",
"......+++++.................####.......###.....................++++....+@@@@@@@@@@@@@@@@@@@@@@@@@@@@+......................",
".......+++++................###.......####.....#................++++....+@@@@@@@@@@@@@@@@@@@@@@@@@@@+......................",
".........++++................##......####.....###................++++....+@@@@@@@@@@@@@@@@@@@@@@@@@@+......................",
"..........++++................##....####.....#####................++++....+@@@@@@@@@@@@@@@@@@@@@@@@@+......................",
"...........++++................########.....####.##................++++....+@@@@@@@@@@@@@@@@@@@@@@@@+......................",
"............++++................######.....####...##................++++....+@@@@@@@@@@@@@@@@@@@@@@@+......................",
".............++++.........................####.....##................++++....+@@@@@@@@@@@@@@@@@@@@@@+......................",
"..............++++.......................####.........................++++....+@@@@@@@@@@@@@@@@@@@@@+......................",
"...............++++.....................#####..........................++++....+@@@@@@@@@@@@@@@@@@@@+......................",
"................++++...................####.##.........#................++++....+@@@@@@@@@@@@@@@@@@@+......................",
".................++++.................####...##.......###................++++....+@@@@@@@@@@@@@@@@@@+......................",
"..................++++................###.....##.....#####................++++....+@@@@@@@@@@@@@@@@@+......................",
"...................++++................##...........####.##................++++....+@@@@@@@@@@@@@@@@+......................",
"....................++++................##.........####...##................++++....+@@@@@@@@@@@@@@@+......................",
".....................++++................##.......####.....##................++++....+@@@@@@@@@@@@@@+......................",
"......................++++................##.....####.........................++++....+@@@@@@@@@@@@@+......................",
".......................++++.....................#####..........................++++....+@@@@@@@@@@@@+......................",
"........................++++...................####.##..........................++++....+@@@@@@@@@@@+......................",
".........................++++.................####...##..........................++++....+@@@@@@@@@@+......................",
"..........................++++................###.....#........###................++++....+@@@@@@@@@+......................",
"...........................++++................#.............######................++++....+@@@@@@@@+......................",
"............................++++...........................#####.##.................++++....+@@@@@@@+......................",
".............................++++........................#####..###..................++++....+@@@@@@+......................",
"........................+.....++++....................#######..###....................++++....+@@@@@+......................",
"........................++.....++++.................#######....###.....................++++....+@@@@+......................",
"........................+@+.....++++................######....###.......................++++....+@@@+......................",
"........................+@@+.....++++................#...##...###.......#................++++....+@@+......................",
"........................+@@@+.....++++....................##.###.......###................++++....+@+......................",
"........................+@@@@+.....++++....................#####......####.................++++....++......................",
"........................+@@@@@+.....++++....................###......####...................++++....+......................",
"........................+@@@@@@+.....++++...................###.....####.....................++++..........................",
"........................+@@@@@@@+.....++++.................####....####.......................++++.........................",
"........................+@@@@@@@@+.....++++................###....####........#................++++........................",
"........................+@@@@@@@@@+.....++++................##...####........###................++++.......................",
"........................+@@@@@@@@@@+.....++++...................####........####.................++++......................",
"........................+@@@@@@@@@@@+.....++++..................###........####...................++++.....................",
"........................+@@@@@@@@@@@@+.....++++.................##........####....#................++++....................",
"........................+@@@@@@@@@@@@@+.....++++................##.......####....###................++++...................",
"........................+@@@@@@@@@@@@@@+.....++++................##....#####....####.................++++..................",
"........................+@@@@@@@@@@@@@@@+.....++++................##..#####....####...................++++.................",
"........................+@@@@@@@@@@@@@@@@+.....++++................#######....####.....................++++................",
"........................+@@@@@@@@@@@@@@@@@+.....++++................####.....####.......................++++...............",
"........................+@@@@@@@@@@@@@@@@@@+.....++++.......................####........#................++++..............",
"........................+@@@@@@@@@@@@@@@@@@@+.....++++.....................####.........##................++++.............",
"........................+@@@@@@@@@@@@@@@@@@@@+.....++++...................####...........##................++++............",
"........................+@@@@@@@@@@@@@@@@@@@@@+.....++++.................####.............##................++++...........",
"........................+@@@@@@@@@@@@@@@@@@@@@@+.....++++................###..............###................++++..........",
"........................+@@@@@@@@@@@@@@@@@@@@@@@+.....++++................##.............#####................++++.........",
"........................+@@@@@@@@@@@@@@@@@@@@@@@@+.....++++................##...........####.##................++++........",
"........................+@@@@@@@@@@@@@@@@@@@@@@@@@+.....++++................##.........####...##................++++.......",
"........................+@@@@@@@@@@@@@@@@@@@@@@@@@@+.....++++................##.......####.......................++++......",
"........................+@@@@@@@@@@@@@@@@@@@@@@@@@@@+.....++++.......................####.........................++++.....",
"........................+@@@@@@@@@@@@@@@@@@@@@@@@@@@@+.....++++.....................####.........................++++......",
"........................+@@@@@@@@@@@@@@@@@@@@@@@@@@@@@+.....++++...................####.........................++++.......",
"........................+@@@@@@@@@@@@@@@@@@@@@@@@@@@@@@+.....++++.................####.........................++++........",
"........................+@@@@@@@@@@@@@@@@@@@@@@@@@@@@@@@+.....++++................###.........................++++.........",
"........................+@@@@@@@@@@@@@@@@@@@@@@@@@@@@@@@@+.....++++................#.........................++++..........",
"........................+@@@@@@@@@@@@@@@@@@@@@@@@@@@@@@@@@+.....++++........................................++++...........",
"........................+@@@@@@@@@@@@@@@@@@@@@@@@@@@@@@@@@@+.....++++......................................++++............",
"........................+@@@@@@@@@@@@@@@@@@@@@@@@@@@@@@@@@@@+.....++++....................................++++.............",
"........................+@@@@@@@@@@@@@@@@@@@@@@@@@@@@@@@@@@@@+.....++++..................................++++..............",
"........................+@@@@@@@@@@@@@@@@@@@@@@@@@@@@@@@@@@@@@+.....++++................................++++...............",
"........................+@@@@@@@@@@@@@@@@@@@@@@@@@@@@@@@@@@@@@@+.....++++..............................++++................",
"........................+@@@@@@@@@@@@@@@@@@@@@@@@@@@@@@@@@@@@@@@+.....++++............................++++.................",
"........................++++++++++++++++++++++++++++++++++++++++++.....++++..........................++++..................",
"........................................................................++++........................++++...................",
".........................................................................++++......................++++....................",
"..........................................................................++++....................++++.....................",
"...........................................................................++++..................++++......................",
"............................................................................++++................++++.......................",
".............................................................................++++..............++++........................",
"..............................................................................++++............++++.........................",
"...............................................................................++++..........++++..........................",
"................................................................................++++........++++...........................",
".................................................................................++++......++++............................",
"..................................................................................++++....++++.............................",
"...................................................................................++++..++++..............................",
"....................................................................................++++++++...............................",
".....................................................................................++++++................................",
"......................................................................................++++.................................",
".......................................................................................++..................................",
"...........................................................................................................................",
"...........................................................................................................................",
"...........................................................................................................................",
"...........................................................................................................................",
"...........................................................................................................................",
"..........................................................................................................................."};
