/* XPM */
static char * Loop_Statement_xpm[] = {
"115 114 6 1",
" 	c None",
".	c #FFFFFF",
"+	c #000000",
"@	c #00C800",
"#	c #9090FF",
"$	c #00A900",
"...................................................................................................................",
"...................................................................................................................",
"...................................................................................................................",
".......................................................+++.........................................................",
"......................................................+++++........................................................",
".....................................................+++@+++.......................................................",
"....................................................+++@@@+++......................................................",
"...................................................+++@@@@@+++.....................................................",
"..................................................+++@@@@@@@+++....................................................",
".................................................+++@@@@@@@@@+++...................................................",
"................................................+++@@@@@@@@@@@+++..................................................",
"...............................................+++@@@@@@@@@@@@@+++.................................................",
"..............................................+++@@@@@@@@@@@@@@@+++................................................",
".............................................+++@@@@@@@@@@@@@@@@@+++...............................................",
"............................................+++@@@@@@@@@@@@@@@@@@@+++..............................................",
"................++++++++++++++++++++++++++++++@@@@@@@@@@@@@@@@@@@@@+++++++++++++++++++++++++++++++.................",
"................+++++++++++++++++++++++++++++@@@@@@@@@@@@@@@@@@@@@@@++++++++++++++++++++++++++++++.................",
"................++#######################+++@@@@@@@@@@@@@@@@@@@@@@@@@+++########################++.................",
"................++######################+++@@@@@@@@@@@@@@@@@@@@@@@@@@@+++#######################++.................",
"................++#####################+++@@@@@@@@@@@@@@@@@@@@@@@@@@@@@+++######################++.................",
"................++####################+++@@@@@@@@@@@@@@@@@@@@@@@@@@@@@@@+++#####################++.................",
"................++###################+++@@@@@@@@@@@@@@@@@@@@@@@@@@@@@@@@@+++####################++.................",
"................++##################+++@@@@@@@@@@@@@@@@@@@@@@@@@@@@@@@@@@@+++###################++.................",
"................++#################+++@@@@@@@@@@@@@@@@@@@@@@@@@@@@@@@@@@@@@+++##################++.................",
"................++################+++@@@@@@@@@@@@@@@@@@@@@@@@@@@@@@@@@@@@@@@+++#################++.................",
"................++###############+++@@@@@@@@@@@@@@@@@@@@@@@@@@@@@@@@@@@@@@@@@+++################++.................",
"................++##############+++@@@@@@@@@@@@@@@@@@@@@@@@@@@@@@@@@@@@@@@@@@@+++###############++.................",
"................++#############+++@@@@@@@@@@@@@@@@@@@@@@@@@@@@@@@@@@@@@@@@@@@@@+++##############++.................",
"................++############+++@@@@@@@@@@@@@@@@@@@@@@@@@@@@@@@@@@@@@@@@@@@@@@@+++#############++.................",
"................++###########+++@@@@@@@@..@@@@@@@@@@@@@@@@@@@@@@@@@@@@@@@@@@@@@@@+++############++.................",
"................++##########+++@@@@@@@@@..@@@@@@@@@@@@@@@@@@@@@@@@@@@@@@@@@@@@@@@@+++###########++.................",
"................++#########+++@@@@@@@@@@..@@@@@@@@@@@@@@@@@@@@@@@@@@@@@@@@@@@@@@@@@+++##########++.................",
"................++########+++@@@@@@@@@@@..@@@@@@@....@@@@@....@@@@..@...@@@@@@@@@@@@+++#########++.................",
"................++#######+++@@@@@@@@@@@@..@@@@@@..@@..@@@..@@..@@@...@@..@@@@@@@@@@@@+++########++.................",
"................++######+++@@@@@@@@@@@@@..@@@@@..@@@@..@..@@@@..@@..@@@@..@@@@@@@@@@@@+++#######++.................",
"................++#####+++@@@@@@@@@@@@@@..@@@@@..@@@@..@..@@@@..@@..@@@@..@@@@@@@@@@@@@+++######++.................",
"................++####+++@@@@@@@@@@@@@@@..@@@@@..@@@@..@..@@@@..@@..@@@@..@@@@@@@@@@@@@@+++#####++.................",
"................++###+++@@@@@@@@@@@@@@@@..@@@@@..@@@@..@..@@@@..@@..@@@@..@@@@@@@@@@@@@@@+++####++.................",
"................++##+++@@@@@@@@@@@@@@@@@..@@@@@@..@@..@@@..@@..@@@...@@..@@@@@@@@@@@@@@@@@+++###++.................",
"................++#+++@@@@@@@@@@@@@@@@@@......@@@....@@@@@....@@@@......@@@@@@@@@@@@@@@@@@@+++##++.................",
"................+++++@@@@@@@@@@@@@@@@@@@@@@@@@@@@@@@@@@@@@@@@@@@@@..@@@@@@@@@@@@@@@@@@@@@@@@+++#++.................",
"................++++@@@@@@@@@@@@@@@@@@@@@@@@@@@@@@@@@@@@@@@@@@@@@@..@@@@@@@@@@@@@@@@@@@@@@@@@+++++.................",
"................+++@@@@@@@@@@@@@@@@@@@@@@@@@@@@@@@@@@@@@@@@@@@@@@@..@@@@@@@@@@@@@@@@@@@@@@@@@@++++.................",
"...............+++@@@@@@@@@@@@@@@@@@@@@@@@@@@@@@@@@@@@@@@@@@@@@@@@@@@@@@@@@@@@@@@@@@@@@@@@@@@@@+++.................",
"..............+++@@@@@@@@@@@@@@@@@@@@@@@@@@@@@@@@@@@@@@@@@@@@@@@@@@@@@@@@@@@@@@@@@@@@@@@@@@@@@@@+++................",
".............+++@@@@@@@@@@@@@@@@@@@@@@@@@@@@@@@@@@@@@@@@@@@@@@@@@@@@@@@@@@@@@@@@@@@@@@@@@@@@@@@@@+++...............",
"............+++@@@@@@@@@@@@@@@@@@@@@@@@@@@@@@@@@@@@@@@@@@@@@@@@@@@@@@@@@@@@@@@@@@@@@@@@@@@@@@@@@@@+++..............",
"...........+++@@@@@@@@@...@@@@@@@@@@@@@@@@@@@@@@@@@@@@@@@@@@@@@@@@@@@@@@@@@@@@@@@@@@@@@@@@@@@@@@@@@+++.............",
"..........+++@@@@@@@@@.@@@.@@..@@@@@@@@@@@@..@@@@@@@@@@@@@@@@@@@@@@@@@@@@@@@@@@@@@@@@@@@..@@@@@@@@@@+++............",
".........+++@@@@@@@@@..@@@@@@..@@@@@@@@@@@@..@@@@@@@@@@@@@@@@@@@@@@@@@@@@@@@@@@@@@@@@@@@..@@@@@@@@@@@+++...........",
"........+++@@@@@@@@@@...@@@@.....@@.....@@.....@@@...@@@@..@...@@...@@@...@@@@@..@...@@.....@@@@@@@@@@+++..........",
".......+++@@@@@@@@@@@.....@@@..@@@@.@@@..@@..@@@@..@..@@@...@@...@@..@..@..@@@@...@@..@@..@@@@@@@@@@@@@+++.........",
"......+++@@@@@@@@@@@@@.....@@..@@@@@@@@..@@..@@@..@@@..@@..@@@..@@@....@@@..@@@..@@@..@@..@@@@@@@@@@@@@@+++........",
".....+++@@@@@@@@@@@@@@@.....@..@@@@......@@..@@@..@@@..@@..@@@..@@@....@@@..@@@..@@@..@@..@@@@@@@@@@@@@@@+++.......",
"....+++@@@@@@@@@@@@@@@@@@...@..@@@..@@@..@@..@@@.......@@..@@@..@@@.........@@@..@@@..@@..@@@@@@@@@@@@@@@@+++......",
"...+++@@@@@@@@@@@@@@@@@@@@..@..@@@..@@@..@@..@@@..@@@@@@@..@@@..@@@....@@@@@@@@..@@@..@@..@@@@@@@@@@@@@@@@@+++.....",
"..+++@@@@@@@@@@@@@@@@.@@@@.@@..@@@..@@...@@..@@@@..@@@.@@..@@@..@@@..@..@@@.@@@..@@@..@@..@@@@@@@@@@@@@@@@@@+++....",
"...+++@@@@@@@@@@@@@@@.....@@@@...@@...@..@@@...@@@.....@@..@@@..@@@..@@.....@@@..@@@..@@@...@@@@@@@@@@@@@@@+++.....",
"....+++@@@@@@@@@@@@@@@@@@@@@@@@@@@@@@@@@@@@@@@@@@@@@@@@@@@@@@@@@@@@@@@@@@@@@@@@@@@@@@@@@@@@@@@@@@@@@@@@@@@+++......",
".....+++@@@@@@@@@@@@@@@@@@@@@@@@@@@@@@@@@@@@@@@@@@@@@@@@@@@@@@@@@@@@@@@@@@@@@@@@@@@@@@@@@@@@@@@@@@@@@@@@@+++.......",
"......+++@@@@@@@@@@@@@@@@@@@@@@@@@@@@@@@@@@@@@@@@@@@@@@@@@@@@@@@@@@@@@@@@@@@@@@@@@@@@@@@@@@@@@@@@@@@@@@@+++........",
".......+++@@@@@@@@@@@@@@@@@@@@@@@@@@@@@@@@@@@@@@@@@@@@@@@@@@@@@@@@@@@@@@@@@@@@@@@@@@@@@@@@@@@@@@@@@@@@@+++.........",
"........+++@@@@@@@@@@@@@@@@@@@@@@@@@@@@@@@@@@@@@@@@@@@@@@@@@@@@@@@@@@@@@@@@@@@@@@@@@@@@@@@@@@@@@@@@@@@+++..........",
".........+++@@@@@@@@@@@@@@@@@@@@@@@@@@@@@@@@@@@@@@@@@@@@@@@@@@@@@@@@@@@@@@@@@@@@@@@@@@@@@@@@@@@@@@@@@+++...........",
"..........+++@@@@@@@@@@@@@@@@@@@@@@@@@@@@@@@@@@@@@@@@@@@@@@@@@@@@@@@@@@@@@@@@@@@@@@@@@@@@@@@@@@@@@@@+++............",
"...........+++@@@@@@@@@@@@@@@@@@@@@@@@@@@@@@@@@@@@@@@@@@@@@@@@@@@@@@@@@@@@@@@@@@@@@@@@@@@@@@@@@@@@@+++.............",
"............+++@@@@@@@@@@@@@@@@@@@@@@@@@@@@@@@@@@@@@@@@@@@@@@@@@@@@@@@@@@@@@@@@@@@@@@@@@@@@@@@@@@@+++..............",
".............+++@@@@@@@@@@@@@@@@@@@@@@@@@@@@@@@@@@@@@@@@@@@@@@@@@@@@@@@@@@@@@@@@@@@@@@@@@@@@@@@@@+++...............",
"..............+++@@@@@@@@@@@@@@@@@@@@@@@@@@@@@@@@@@@.........@@@@@@@@@@@@@@@@@@@@@@@@@@@@@@@@@@@+++................",
"...............+++@@@@@@@@@@@@@@@@@@@@@@@@@@@@@@@@.............@@@@@@@@@@@@@@@@@@@@@@@@@@@@@@@@+++.................",
"................+++@@@@@@@@@@@@@@@@@@@@@@@@@@@@@@....@@@@@@@....@@@@@@@@@@@@@@@@@@@@@@@@@@@@@@++++.................",
"................++++@@@@@@@@@@@@@@@@@@@@@@@@@@@@...@@@@@@@@@@@...@@@@@@@@@@@@@@@@@@@@@@@@@@@@+++++.................",
"................+++++@@@@@@@@@@@@@@@@@@@@@@@@@@@..@@@@@@@@@@@@@..@@@@@@@@@@@@@@@@@@@@@@@@@@@+++#++.................",
"................++#+++@@@@@@@@@@@@@@@@@@@@@@@@@..@@@@@@@@@@@@@@@..@@@@@@@@@@@@@@@@@@@@@@@@@+++##++.................",
"................++##+++@@@@@@@@@@@@@@@@@@@@@@@...@@@@@@@@@@@@@@@...@@@@@@@@@@@@@@@@@@@@@@@+++###++.................",
"................++###+++@@@@@@@@@@@@@@@@@@@@@@..@@@@@@@@@@@@@@@@@..@@@@@@@@@@@@@@@@@@@@@@+++####++.................",
"................++####+++@@@@@@@@@@@@@@@@@@@@@..@@@@@@@@@@@@@@@@@..@@@@@@@@@@@@@@@@@@@@@+++#####++.................",
"................++#####+++@@@@@@@@@@@@@@@@@@@@..@@@@@@@@@@@@@@@@@..@@@@@@@@@@@@@@@@@@@@+++######++.................",
"................++######+++@@@@@@@@@@@@@@@@@@..@@@@@@@@@@@@@@.@@@..@@@@@@@@@@@@@@@@@@@+++#######++.................",
"................++#######+++@@@@@@@@@@@@@@@@@@..@@@@@@@@@@@@@..@@..@@@@@@@@@@@@@@@@@@+++########++.................",
"................++########+++@@@@@@@@@@@@@@@@@..@@@@@@@@@@@@....@..@@@@@@@@@@@@@@@@@+++#########++.................",
"................++#########+++@@@@@@@@@@@@@@@@..@@@@@@@@@@@@.......@@@@@@@@@@@@@@@@+++##########++.................",
"................++##########+++@@@@@@@@@@@@@@@...@@@@@@@@@@@.......@@@@@@@@@@@@@@@+++###########++.................",
"................++###########+++@@@@@@@@@@@@@@@..@@@@@@@@@@........@@@@@@@@@@@@@@+++############++.................",
"................++############+++@@@@@@@@@@@@@@@..@@@@@@@@@.........@@@@@@@@@@@@+++#############++.................",
"................++#############+++@@@@@@@@@@@@@@...@@@@@@@@.......@@@@@@@@@@@@@+++##############++.................",
"................++##############+++@@@@@@@@@@@@@@...$$$$$$......@@@@@@@@@@@@@@+++###############++.................",
"................++###############+++@@@@@@@@@@@@@@..$$$$$$.....@@@@@@@@@@@@@@+++################++.................",
"................++################+++@@@@@@@@@@@@@@@$$$$$$...@@@@@@@@@@@@@@@+++#################++.................",
"................++#################+++@@@@@@@@@@@@@@$$$$$$@@@@@@@@@@@@@@@@@+++##################++.................",
"................++##################+++@@@@@@@@@@@@@$$$$$$@@@@@@@@@@@@@@@@+++###################++.................",
"................++###################+++@@@@@@@@@@@@@@@@@@@@@@@@@@@@@@@@@+++####################++.................",
"................++####################+++@@@@@@@@@@@@@@@@@@@@@@@@@@@@@@@+++#####################++.................",
"................++#####################+++@@@@@@@@@@@@@@@@@@@@@@@@@@@@@+++######################++.................",
"................++######################+++@@@@@@@@@@@@@@@@@@@@@@@@@@@+++#######################++.................",
"................++++++++++++++++++++++++++++@@@@@@@@@@@@@@@@@@@@@@@@@+++++++++++++++++++++++++++++.................",
"................+++++++++++++++++++++++++++++@@@@@@@@@@@@@@@@@@@@@@@++++++++++++++++++++++++++++++.................",
"...........................................+++@@@@@@@@@@@@@@@@@@@@@+++.............................................",
"............................................+++@@@@@@@@@@@@@@@@@@@+++..............................................",
".............................................+++@@@@@@@@@@@@@@@@@+++...............................................",
"..............................................+++@@@@@@@@@@@@@@@+++................................................",
"...............................................+++@@@@@@@@@@@@@+++.................................................",
"................................................+++@@@@@@@@@@@+++..................................................",
".................................................+++@@@@@@@@@+++...................................................",
"..................................................+++@@@@@@@+++....................................................",
"...................................................+++@@@@@+++.....................................................",
"....................................................+++@@@+++......................................................",
".....................................................+++@+++.......................................................",
"......................................................+++++........................................................",
".......................................................+++.........................................................",
"...................................................................................................................",
"...................................................................................................................",
"...................................................................................................................",
"..................................................................................................................."};
