/* XPM */
static char * O_Node_xpm[] = {
"144 74 3 1",
" 	c None",
".	c #FFFFFF",
"+	c #0000FF",
"................................................................................................................................................",
"................................................................................................................................................",
"................................................................................................................................................",
"................................................................................................................................................",
"................................................................................................................................................",
"................................................................................................................................................",
".......+++++++++++++++++++++++++++++++++++++++++...........................++++++++++++++++++++++++++++++++++++++++++++++++++++++++++++++.......",
".......++++++++++++++++++++++++++++++++++++++++++...........................+++++++++++++++++++++++++++++++++++++++++++++++++++++++++++++.......",
".......++++++++++++++++++++++++++++++++++++++++++...........................+++++++++++++++++++++++++++++++++++++++++++++++++++++++++++++.......",
".......++++++++++++++++++++++++++++++++++++++++++............................++++++++++++++++++++++++++++++++++++++++++++++++++++++++++++.......",
".......+++++++++++++++++++++++++++++++++++++++++++...........................++++++++++++++++++++++++++++++++++++++++++++++++++++++++++++.......",
".......+++++++++++++++++++++++++++++++++++++++++++...........................++++++++++++++++++++++++++++++++++++++++++++++++++++++++++++.......",
".......++++++++++++++++++++++++++++++++++++++++++++...........................+++++++++++++++++++++++++++++++++++++++++++++++++++++++++++.......",
".......++++++++++++++++++++++++++++++++++++++++++++...........................+++++++++++++++++++++++++++++++++++++++++++++++++++++++++++.......",
".......++++++++++++++++++++++++++++++++++++++++++++...........................+++++++++++++++++++++++++++++++++++++++++++++++++++++++++++.......",
".......+++++++++++++++++++++++++++++++++++++++++++++...........................++++++++++++++++++++++++++++++++++++++++++++++++++++++++++.......",
".......+++++++++++++++++++++++++++++++++++++++++++++...........................++++++++++++++++++++++++++++++++++++++++++++++++++++++++++.......",
".......++++++++++..............................................................................................................++++++++++.......",
".......++++++++++..............................................................................................................++++++++++.......",
".......++++++++++..++++++++++++++++++++++++++++++++++++++++++++++++++++++++++++++++++++++++++++++++++++++++++++++++++++++++++..++++++++++.......",
".......++++++++++..++++++++++++++++++++++++++++++++++++++++++++++++++++++++++++++++++++++++++++++++++++++++++++++++++++++++++..++++++++++.......",
".......++++++++++..++++++++++++++++++++++++++++++++++++++++++++++++++++++++++++++++++++++++++++++++++++++++++++++++++++++++++..++++++++++.......",
".......++++++++++..++++++++++++++++++++++++++++++++++++++++++++++++++++++++++++++++++++++++++++++++++++++++++++++++++++++++++..++++++++++.......",
".......++++++++++..++++++++++++++++++++++++++++++++++++++++++++++++++++++++++++++++++++++++++++++++++++++++++++++++++++++++++..++++++++++.......",
".......++++++++++..++++++++++++++++++++++++++++++++++++++++++++++++++++++++++++++++++++++++++++++++++++++++++++++++++++++++++..++++++++++.......",
".......++++++++++..++++++++++++++++++++++++++++++++++++++++++++++++++++++++++++++++++++++++++++++++++++++++++++++++++++++++++..++++++++++.......",
".......++++++++++..++++++++++++++++++++++++++++++++++++++++++++++++++++++++++++++++++++++++++++++++++++++++++++++++++++++++++..++++++++++.......",
".......++++++++++..++++++++++++++++++++++++++++++++++++++++++++++++++++++++++++++++++++++++++++++++++++++++++++++++++++++++++..++++++++++.......",
".......++++++++++..++++++++++++++++++++++++++++++++++++++++++++++++++++++++++++++++++++++++++++++++++++++++++++++++++++++++++..++++++++++.......",
".......++++++++++..+++++++++++++++++++++++++++++++++++++++++++++++++++++++++++++++++++++++++++...++++++++++++++++++++++++++++..++++++++++.......",
".......++++++++++..++++++++++++++++++++......++++++++++++++++....+++++...+++++++++++++++++++++...++++++++++++++++++++++++++++..++++++++++.......",
".......++++++++++..++++++++++++++++++..........++++++++++++++....+++++...+++++++++++++++++++++...++++++++++++++++++++++++++++..++++++++++.......",
".......++++++++++..+++++++++++++++++....++++....+++++++++++++.....++++...+++++++++++++++++++++...++++++++++++++++++++++++++++..++++++++++.......",
".......++++++++++..+++++++++++++++++...++++++...+++++++++++++.....++++...+++++++++++++++++++++...++++++++++++++++++++++++++++..++++++++++.......",
".......++++++++++..++++++++++++++++...++++++++...++++++++++++......+++...++++.....+++++++....+...++++.....+++++++++++++++++++..++++++++++.......",
".......++++++++++..++++++++++++++++...++++++++...++++++++++++...+..+++...++.........++++.........++........++++++++++++++++++..++++++++++.......",
".......++++++++++..++++++++++++++++...++++++++...++++++++++++...++..++...++...+++...+++....++....++...++...++++++++++++++++++..++++++++++.......",
".......++++++++++..++++++++++++++++...++++++++...++++++++++++...++..++...+...+++++...++...++++...+...++++...+++++++++++++++++..++++++++++.......",
".......++++++++++..++++++++++++++++...++++++++...++++++++++++...+++..+...+...+++++...++...++++...+..........+++++++++++++++++..++++++++++.......",
".......++++++++++..++++++++++++++++...++++++++...++++++++++++...+++..+...+...+++++...++...++++...+..........+++++++++++++++++..++++++++++.......",
".......++++++++++..+++++++++++++++++...++++++...+++++++++++++...++++.....+...+++++...++...++++...+...++++++++++++++++++++++++..++++++++++.......",
".......++++++++++..+++++++++++++++++....++++....+++++++++++++...++++.....++...+++...+++....++....++...++++.++++++++++++++++++..++++++++++.......",
".......++++++++++..++++++++++++++++++..........++++++++++++++...+++++....++.........++++.........++........++++++++++++++++++..++++++++++.......",
".......++++++++++..++++++++++++++++++++......++++++++++++++++...+++++....++++.....+++++++....++..++++.....+++++++++++++++++++..++++++++++.......",
".......++++++++++..++++++++++++++++++++++++++++++++++++++++++++++++++++++++++++++++++++++++++++++++++++++++++++++++++++++++++..++++++++++.......",
".......++++++++++..++++++++++++++++++++++++++++++++++++++++++++++++++++++++++++++++++++++++++++++++++++++++++++++++++++++++++..++++++++++.......",
".......++++++++++..+++++++++++++++++++++++++++++++..........+++++++++++++++++++++++++++++++++++++++++++++++++++++++++++++++++..++++++++++.......",
".......++++++++++..++++++++++++++++++++++++++++++++++++++++++++++++++++++++++++++++++++++++++++++++++++++++++++++++++++++++++..++++++++++.......",
".......++++++++++..++++++++++++++++++++++++++++++++++++++++++++++++++++++++++++++++++++++++++++++++++++++++++++++++++++++++++..++++++++++.......",
".......++++++++++..++++++++++++++++++++++++++++++++++++++++++++++++++++++++++++++++++++++++++++++++++++++++++++++++++++++++++..++++++++++.......",
".......++++++++++..++++++++++++++++++++++++++++++++++++++++++++++++++++++++++++++++++++++++++++++++++++++++++++++++++++++++++..++++++++++.......",
".......++++++++++..++++++++++++++++++++++++++++++++++++++++++++++++++++++++++++++++++++++++++++++++++++++++++++++++++++++++++..++++++++++.......",
".......++++++++++..++++++++++++++++++++++++++++++++++++++++++++++++++++++++++++++++++++++++++++++++++++++++++++++++++++++++++..++++++++++.......",
".......++++++++++..............................................................................................................++++++++++.......",
".......++++++++++..............................................................................................................++++++++++.......",
".......++++++++++++++++++++++++++++++++++++++++++++++++++++++++++++...........................+++++++++++++++++++++++++++++++++++++++++++.......",
".......++++++++++++++++++++++++++++++++++++++++++++++++++++++++++++............................++++++++++++++++++++++++++++++++++++++++++.......",
".......++++++++++++++++++++++++++++++++++++++++++++++++++++++++++++............................++++++++++++++++++++++++++++++++++++++++++.......",
".......+++++++++++++++++++++++++++++++++++++++++++++++++++++++++++++............................+++++++++++++++++++++++++++++++++++++++++.......",
".......+++++++++++++++++++++++++++++++++++++++++++++++++++++++++++++............................+++++++++++++++++++++++++++++++++++++++++.......",
".......+++++++++++++++++++++++++++++++++++++++++++++++++++++++++++++............................+++++++++++++++++++++++++++++++++++++++++.......",
".......++++++++++++++++++++++++++++++++++++++++++++++++++++++++++++++............................++++++++++++++++++++++++++++++++++++++++.......",
".......++++++++++++++++++++++++++++++++++++++++++++++++++++++++++++++............................++++++++++++++++++++++++++++++++++++++++.......",
".......+++++++++++++++++++++++++++++++++++++++++++++++++++++++++++++++...........................++++++++++++++++++++++++++++++++++++++++.......",
".......+++++++++++++++++++++++++++++++++++++++++++++++++++++++++++++++............................+++++++++++++++++++++++++++++++++++++++.......",
".......+++++++++++++++++++++++++++++++++++++++++++++++++++++++++++++++............................+++++++++++++++++++++++++++++++++++++++.......",
"................................................................................................................................................",
"................................................................................................................................................",
"................................................................................................................................................",
"................................................................................................................................................",
"................................................................................................................................................",
"................................................................................................................................................",
"................................................................................................................................................",
"................................................................................................................................................"};
