/* XPM */
static char * Sequence_Item_xpm[] = {
"115 114 5 1",
" 	c None",
".	c #FFFFFF",
"+	c #000000",
"@	c #00C800",
"#	c #00FFFF",
"...................................................................................................................",
"...................................................................................................................",
"...................................................................................................................",
".........................................................+.........................................................",
"........................................................+++........................................................",
".......................................................+++++.......................................................",
"......................................................+++@+++......................................................",
".....................................................+++@@@+++.....................................................",
"....................................................+++@@@@@+++....................................................",
"...................................................+++@@@@@@@+++...................................................",
"..................................................+++@@@@@@@@@+++..................................................",
".................................................+++@@@@@@@@@@@+++.................................................",
"................................................+++@@@@@@@@@@@@@+++................................................",
"...............................................+++@@@@@@@@@@@@@@@+++...............................................",
"..............................................+++@@@@@@@@@@@@@@@@@+++..............................................",
"................++++++++++++++++++++++++++++++++@@@@@@@@@@@@@@@@@@@+++++++++++++++++++++++++++++++.................",
"................+++++++++++++++++++++++++++++++@@@@@@@@@@@@@@@@@@@@@++++++++++++++++++++++++++++++.................",
"................++#########################+++@@@@@@@@@@@@@@@@@@@@@@@+++########################++.................",
"................++########################+++@@@@@@@@@@@@@@@@@@@@@@@@@+++#######################++.................",
"................++#######################+++@@@@@@@@@@@@@@@@@@@@@@@@@@@+++######################++.................",
"................++######################+++@@@@@@@@@@@@@@@@@@@@@@@@@@@@@+++#####################++.................",
"................++#####################+++@@@@@@@@@@@@@@@@@@@@@@@@@@@@@@@+++####################++.................",
"................++####################+++@@@@@@@@@@@@@@@@@@@@@@@@@@@@@@@@@+++###################++.................",
"................++###################+++@@@@@@@@@@@@@@@@@@@@@@@@@@@@@@@@@@@+++##################++.................",
"................++##################+++@@@@@@@@@@@@@@@@@@@@@@@@@@@@@@@@@@@@@+++#################++.................",
"................++#################+++@@@@@@@@@@@@@@@@@@@@@@@@@@@@@@@@@@@@@@@+++################++.................",
"................++################+++@@@@@@@@@@@@@@@@@@@@@@@@@@@@@@@@@@@@@@@@@+++###############++.................",
"................++###############+++@@@@@@@@@@@@@@@@@@@@@@@@@@@@@@@@@@@@@@@@@@@+++##############++.................",
"................++##############+++@@@@@@@@@@@@@@@@@@@@@@@@@@@@@@@@@@@@@@@@@@@@@+++#############++.................",
"................++############++++@@@@@@@@@@@@@@@@@@@@@@@@@@@@@@@@@@@@@@@@@@@@@@@+++############++.................",
"................++###########++++@@@@@@@@@@@@@@@@@@@@@@@@@@@@@@@@@@@@@@@@@@@@@@@@@++++##########++.................",
"................++##########+++@@@@@@@@@@@@@@@@@@@@@@@@@@@@@@@@@@@@@@@@@@@@@@@@@@@@++++#########++.................",
"................++#########+++@@@@@@@@@@@@@@@@@@@@@@@@@@@@@@@@@@@@@@@@@@@@@@@@@@@@@@@+++########++.................",
"................++########+++@@@@@@@@@@@@@@@@@@@@@@@@@@@@@@@@@..@@@@@@@@@@@@@@@@@@@@@@+++#######++.................",
"................++#######+++@@@@@@@@@@@@@@@@@@@@@@@@@@@@@@@@@@....@@@@@@@@@@@@@@@@@@@@@+++######++.................",
"................++######+++@@@@@@@@@@@@@@@@@@@@@@@@@@@@@@@@@@@......@@@@@@@@@@@@@@@@@@@@+++#####++.................",
"................++#####+++@@@@@@@@@@@@@@@@@@..........................@@@@@@@@@@@@@@@@@@@+++####++.................",
"................++####+++@@@@@@@@@@@@@@@@@@@............................@@@@@@@@@@@@@@@@@@+++###++.................",
"................++###+++@@@@@@@@@@@@@@@@@@@@@@@@@@@@@@@@@@@@@@........@@@@@@@@@@@@@@@@@@@@@+++##++.................",
"................++##+++@@@@@@@@@@@@@@@@@@@@@@@@@@@@@@@@@@@@@@@......@@@@@@@@@@@@@@@@@@@@@@@@+++#++.................",
"................++#+++@@@@@@@@@@@@@@@@@@@@@@@@@@@@@@@@@@@@@@@@....@@@@@@@@@@@@@@@@@@@@@@@@@@@+++++.................",
"................+++++@@@@@@@@@@@@@@@@@@@@@@@@@@@@@@@@@@@@@@@@@..@@@@@@@@@@@@@@@@@@@@@@@@@@@@@@++++.................",
"................++++@@@@@@@@@@@@@@@@@@@@@@@@@@@@@@@@@@@@@@@@@@@@@@@@@@@@@@@@@@@@@@@@@@@@@@@@@@@+++.................",
"................+++@@@@@@@@@@@@@@@@@@@@@@@@@@@@@@@@@@@@@@@@@@@@@@@@@@@@@@@@@@@@@@@@@@@@@@@@@@@@@+++................",
"...............+++@@@@@@@@@@@@@@@@@@@@@@@@@@@@@@@@@@@@@@@@@@@@@@@@@@@@@@@@@@@@@@@@@@@@@@@@@@@@@@@+++...............",
"..............+++@@@@@@@@@@@@@@@@@@@@@@@@@@@@@@@@@@@@@@@@@@@@@@@@@@@@@@@@@@@@@@@@@@@@@@@@@@@@@@@@@+++..............",
".............+++@@@@@@@@@@@@@@@@@@@@@@@@@@@@@@@@@@@@@@@@@@@@@@@@@@@@@@@@@@@@@@@@@@@@@@@@@@@@@@@@@@@+++.............",
"............+++@@@@@@@@@@@@@@@@@@@@@@@@@@@@@@@@@@@@@@@@@@@@@@@@@@@@@@@@@@@@@@@@@@@@@@@@@@@@@@@@@@@@@+++............",
"...........+++@@@@@@@@@@@@@@@@@@@@@@@@@@@@@@@@@@@@@@@@@@@@@@@@@@@@@@@@@@@@@@@@@@@@@@@@@@@@@@@@@@@@@@@+++...........",
"..........+++@@@@@@@@@@@@@@@@@@@@@@@@@@@@@@@@@@@@@@@@@@@@@@@@@@@@@@@@@@@@@@@@@@@@@@@@@@@@@@@@@@@@@@@@@+++..........",
".........+++@@@@@@@@@@@....@@@@@@@@@@@@@@@@@@@@@@@@@@@@@@@@@@@@@@@@@@@@@@@@@@@@@@@@@@@@@@@@@@@@@@@@@@@@+++.........",
"........+++@@@@@@@@@@..@@@.@@@@@@@@@@@@@@@@@@@@@@@@@@@@@@@@@@@@@@@@@@@@@@@@@@@@@@@@@@@@@@@@@@@@@@@@@@@@@+++........",
".......+++@@@@@@@@@@@..@@@@@@@@@@@@@@@@@@@@@@@@@@@@@@@@@@@@@@@@@@@@@@@@@@@@@@@@@@@@@@@@@@@@@@@@@@@@@@@@@@+++.......",
"......+++@@@@@@@@@@@@..@@@@@@@@@....@@@@@....@..@..@@@@..@@@@....@@@..@....@@@@@....@@@@....@@@@@@@@@@@@@@+++......",
".....+++@@@@@@@@@@@@@....@@@@@@..@@..@@@..@@@...@..@@@@..@@@..@@..@@...@@...@@@..@@@@@@..@@..@@@@@@@@@@@@@@+++.....",
"....+++@@@@@@@@@@@@@@@....@@@@..@@@@..@..@@@@@..@..@@@@..@@..@@@@..@..@@@@..@@..@@@@@@..@@@@..@@@@@@@@@@@@@@+++....",
"...+++@@@@@@@@@@@@@@@@@....@@@..@@@@..@..@@@@@..@..@@@@..@@..@@@@..@..@@@@..@@..@@@@@@..@@@@..@@@@@@@@@@@@@@@+++...",
"....+++@@@@@@@@@@@@@@@@@@...@@........@..@@@@@..@..@@@@..@@........@..@@@@..@@..@@@@@@........@@@@@@@@@@@@@@+++....",
".....+++@@@@@@@@@@@@@@@@@@..@@..@@@@@@@..@@@@@..@..@@@@..@@..@@@@@@@..@@@@..@@..@@@@@@..@@@@@@@@@@@@@@@@@@@+++.....",
"......+++@@@@@@@@@@@@@@@@@..@@..@@@@@@@..@@@@@..@..@@@@..@@..@@@@@@@..@@@@..@@..@@@@@@..@@@@@@@@@@@@@@@@@@+++......",
".......+++@@@@@@@@@@@.@@@..@@@@..@@@@@@@..@@@...@...@@...@@@..@@@@@@..@@@@..@@@..@@@@@@..@@@@@@@@@@@@@@@@+++.......",
"........+++@@@@@@@@@@.....@@@@@@.....@@@@....@..@@....@..@@@@.....@@..@@@@..@@@@....@@@@.....@@@@@@@@@@@+++........",
".........+++@@@@@@@@@@@@@@@@@@@@@@@@@@@@@@@@@@..@@@@@@@@@@@@@@@@@@@@@@@@@@@@@@@@@@@@@@@@@@@@@@@@@@@@@@@+++.........",
"..........+++@@@@@@@@@@@@@@@@@@@@@@@@@@@@@@@@@..@@@@@@@@@@@@@@@@@@@@@@@@@@@@@@@@@@@@@@@@@@@@@@@@@@@@@@+++..........",
"...........+++@@@@@@@@@@@@@@@@@@@@@@@@@@@@@@@@..@@@@@@@@@@@@@@@@@@@@@@@@@@@@@@@@@@@@@@@@@@@@@@@@@@@@@+++...........",
"............+++@@@@@@@@@@@@@@@@@@@@@@@@@@@@@@@..@@@@@@@@@@@@@@@@@@@@@@@@@@@@@@@@@@@@@@@@@@@@@@@@@@@@+++............",
".............+++@@@@@@@@@@@@@@@@@@@@@@@@@@@@@@@@@@@@@@@@@@@@@@@@@@@@@@@@@@@@@@@@@@@@@@@@@@@@@@@@@@@+++.............",
"..............+++@@@@@@@@@@@@@@@@@@@@@@@@@@@@@@@@@@@@@@@@@@@@@@@@@@@@@@@@@@@@@@@@@@@@@@@@@@@@@@@@@+++..............",
"...............+++@@@@@@@@@@@@@@@@@@@@@@@@@@@@@@@@@@@@@@@@@@@@@@@@@@@@@@@@@@@@@@@@@@@@@@@@@@@@@@@+++...............",
"................+++@@@@@@@@@@@@@@@@@@@@@@@@@@@@@@@@@@@@@@@@@@@@@@@@@@@@@@@@@@@@@@@@@@@@@@@@@@@@@+++................",
"................++++@@@@@@@@@@@@@@@@@@@@..@@@@@@@@@@@@@@@@@@@@@@@@@@@@@@@@@@@@@@@@@@@@@@@@@@@@@+++.................",
"................+++++@@@@@@@@@@@@@@@@@@@..@@@@..@@@@@@@@@@@@@@@@@@@@@@@@@@@@@@@@@@@@@@@@@@@@@@++++.................",
"................++#+++@@@@@@@@@@@@@@@@@@..@@@@..@@@@@@@@@@@@@@@@@@@@@@@@@@@@@@@@@@@@@@@@@@@@@+++++.................",
"................++##+++@@@@@@@@@@@@@@@@@..@@......@@@@....@@@......@@...@@@@@@@@@@@@@@@@@@@@+++#++.................",
"................++###+++@@@@@@@@@@@@@@@@..@@@@..@@@@@..@@..@@...@@.@.@@..@@@@@@@@@@@@@@@@@@+++##++.................",
"................++####+++@@@@@@@@@@@@@@@..@@@@..@@@@..@@@@..@..@@@..@@@..@@@@@@@@@@@@@@@@@+++###++.................",
"................++#####+++@@@@@@@@@@@@@@..@@@@..@@@@..@@@@..@..@@@..@@@..@@@@@@@@@@@@@@@@+++####++.................",
"................++######+++@@@@@@@@@@@@@..@@@@..@@@@........@..@@@..@@@..@@@@@@@@@@@@@@@+++#####++.................",
"................++#######+++@@@@@@@@@@@@..@@@@..@@@@..@@@@@@@..@@@..@@@..@@@@@@@@@@@@@@+++######++.................",
"................++########+++@@@@@@@@@@@..@@@@..@@@@..@@@@@@@..@@@..@@@..@@@@@@@@@@@@@+++#######++.................",
"................++#########+++@@@@@@@@@@..@@@@..@@@@@..@@@@@@..@@@..@@@..@@@@@@@@@@@@+++########++.................",
"................++##########+++@@@@@@@@@..@@@@@...@@@@.....@@..@@@..@@@..@@@@@@@@@@@+++#########++.................",
"................++###########+++@@@@@@@@@@@@@@@@@@@@@@@@@@@@@@@@@@@@@@@@@@@@@@@@@@@+++##########++.................",
"................++############+++@@@@@@@@@@@@@@@@@@@@@@@@@@@@@@@@@@@@@@@@@@@@@@@@@+++###########++.................",
"................++#############+++@@@@@@@@@@@@@@@@@@@@@@@@@@@@@@@@@@@@@@@@@@@@@@@+++############++.................",
"................++##############+++@@@@@@@@@@@@@@@@@@@@@@@@@@@@@@@@@@@@@@@@@@@@@+++#############++.................",
"................++###############+++@@@@@@@@@@@@@@@@@@@@@@@@@@@@@@@@@@@@@@@@@@@+++##############++.................",
"................++################+++@@@@@@@@@@@@@@@@@@@@@@@@@@@@@@@@@@@@@@@@@+++###############++.................",
"................++#################+++@@@@@@@@@@@@@@@@@@@@@@@@@@@@@@@@@@@@@@@+++################++.................",
"................++##################+++@@@@@@@@@@@@@@@@@@@@@@@@@@@@@@@@@@@@@+++#################++.................",
"................++###################+++@@@@@@@@@@@@@@@@@@@@@@@@@@@@@@@@@@@+++##################++.................",
"................++####################+++@@@@@@@@@@@@@@@@@@@@@@@@@@@@@@@@@+++###################++.................",
"................++#####################+++@@@@@@@@@@@@@@@@@@@@@@@@@@@@@@@+++####################++.................",
"................++######################+++@@@@@@@@@@@@@@@@@@@@@@@@@@@@@+++#####################++.................",
"................++#######################+++@@@@@@@@@@@@@@@@@@@@@@@@@@@+++######################++.................",
"................+++++++++++++++++++++++++++++@@@@@@@@@@@@@@@@@@@@@@@@@++++++++++++++++++++++++++++.................",
"................++++++++++++++++++++++++++++++@@@@@@@@@@@@@@@@@@@@@@@+++++++++++++++++++++++++++++.................",
"............................................+++@@@@@@@@@@@@@@@@@@@@@+++............................................",
".............................................+++@@@@@@@@@@@@@@@@@@@+++.............................................",
"..............................................+++@@@@@@@@@@@@@@@@@+++..............................................",
"...............................................+++@@@@@@@@@@@@@@@+++...............................................",
"................................................+++@@@@@@@@@@@@@+++................................................",
".................................................+++@@@@@@@@@@@+++.................................................",
"..................................................+++@@@@@@@@@+++..................................................",
"...................................................+++@@@@@@@+++...................................................",
"....................................................+++@@@@@+++....................................................",
".....................................................+++@@@+++.....................................................",
"......................................................+++@+++......................................................",
".......................................................+++++.......................................................",
"........................................................+++........................................................",
".........................................................+.........................................................",
"...................................................................................................................",
"...................................................................................................................",
"..................................................................................................................."};
