/* XPM */
static char * T_Node_xpm[] = {
"144 74 4 1",
" 	c None",
".	c #FFFFFF",
"+	c #FFFF00",
"@	c #000000",
"................................................................................................................................................",
"................................................................................................................................................",
"................................................................................................................................................",
"................................................................................................................................................",
"................................................................................................................................................",
"................................................................................................................................................",
"................................................................................................................................................",
".......+++++++++++++++++++++++++++++++++++++++++...........................++++++++++++++++++++++++++++++++++++++++++++++++++++++++++++++.......",
".......+++++++++++++++++++++++++++++++++++++++++...........................++++++++++++++++++++++++++++++++++++++++++++++++++++++++++++++.......",
".......+++++++++++++++++++++++++++++++++++++++++............................+++++++++++++++++++++++++++++++++++++++++++++++++++++++++++++.......",
".......++++++++++++++++++++++++++++++++++++++++++...........................+++++++++++++++++++++++++++++++++++++++++++++++++++++++++++++.......",
".......++++++++++++++++++++++++++++++++++++++++++...........................+++++++++++++++++++++++++++++++++++++++++++++++++++++++++++++.......",
".......+++++++++++++++++++++++++++++++++++++++++++...........................++++++++++++++++++++++++++++++++++++++++++++++++++++++++++++.......",
".......+++++++++++++++++++++++++++++++++++++++++++...........................++++++++++++++++++++++++++++++++++++++++++++++++++++++++++++.......",
".......+++++++++++++++++++++++++++++++++++++++++++...........................++++++++++++++++++++++++++++++++++++++++++++++++++++++++++++.......",
".......++++++++++++++++++++++++++++++++++++++++++++...........................+++++++++++++++++++++++++++++++++++++++++++++++++++++++++++.......",
".......++++++++++++++++++++++++++++++++++++++++++++...........................+++++++++++++++++++++++++++++++++++++++++++++++++++++++++++.......",
".......++++++++++++++++++++++++++++++++++++++++++++............................++++++++++++++++++++++++++++++++++++++++++++++++++++++++++.......",
".......++++++++++@@@@@@@@@@@@@@@@@@@@@@@@@@@@@@@@@@@@@@@@@@@@@@@@@@@@@@@@@@@@@@@@@@@@@@@@@@@@@@@@@@@@@@@@@@@@@@@@@@@@@@@@@@@@@@++++++++++.......",
".......++++++++++@@@@@@@@@@@@@@@@@@@@@@@@@@@@@@@@@@@@@@@@@@@@@@@@@@@@@@@@@@@@@@@@@@@@@@@@@@@@@@@@@@@@@@@@@@@@@@@@@@@@@@@@@@@@@@++++++++++.......",
".......++++++++++@@++++++++++++++++++++++++++++++++++++++++++++++++++++++++++++++++++++++++++++++++++++++++++++++++++++++++++@@++++++++++.......",
".......++++++++++@@++++++++++++++++++++++++++++++++++++++++++++++++++++++++++++++++++++++++++++++++++++++++++++++++++++++++++@@++++++++++.......",
".......++++++++++@@++++++++++++++++++++++++++++++++++++++++++++++++++++++++++++++++++++++++++++++++++++++++++++++++++++++++++@@++++++++++.......",
".......++++++++++@@++++++++++++++++++++++++++++++++++++++++++++++++++++++++++++++++++++++++++++++++++++++++++++++++++++++++++@@++++++++++.......",
".......++++++++++@@++++++++++++++++++++++++++++++++++++++++++++++++++++++++++++++++++++++++++++++++++++++++++++++++++++++++++@@++++++++++.......",
".......++++++++++@@++++++++++++++++++++++++++++++++++++++++++++++++++++++++++++++++++++++++++++++++++++++++++++++++++++++++++@@++++++++++.......",
".......++++++++++@@++++++++++++++++++++++++++++++++++++++++++++++++++++++++++++++++++++++++++++++++++++++++++++++++++++++++++@@++++++++++.......",
".......++++++++++@@++++++++++++++++++++++++++++++++++++++++++++++++++++++++++++++++++++++++++++++++++++++++++++++++++++++++++@@++++++++++.......",
".......++++++++++@@++++++++++++++++++++++++++++++++++++++++++++++++++++++++++++++++++++++++++++++++++++++++++++++++++++++++++@@++++++++++.......",
".......++++++++++@@++++++++++++++++++++++++++++++++++++++++++++++++++++++++++++++++++++++++@@@+++++++++++++++++++++++++++++++@@++++++++++.......",
".......++++++++++@@+++++++++++++++++@@@@@@@@@@@+++++++++++@@@@+++++@@@+++++++++++++++++++++@@@+++++++++++++++++++++++++++++++@@++++++++++.......",
".......++++++++++@@+++++++++++++++++@@@@@@@@@@@+++++++++++@@@@+++++@@@+++++++++++++++++++++@@@+++++++++++++++++++++++++++++++@@++++++++++.......",
".......++++++++++@@+++++++++++++++++++++@@@+++++++++++++++@@@@@++++@@@+++++++++++++++++++++@@@+++++++++++++++++++++++++++++++@@++++++++++.......",
".......++++++++++@@+++++++++++++++++++++@@@+++++++++++++++@@@@@++++@@@+++++++++++++++++++++@@@+++++++++++++++++++++++++++++++@@++++++++++.......",
".......++++++++++@@+++++++++++++++++++++@@@+++++++++++++++@@@@@@+++@@@++++@@@@@+++++++@@@@+@@@++++@@@@@++++++++++++++++++++++@@++++++++++.......",
".......++++++++++@@+++++++++++++++++++++@@@+++++++++++++++@@@+@@+++@@@++@@@@@@@@@++++@@@@@@@@@++@@@@@@@@+++++++++++++++++++++@@++++++++++.......",
".......++++++++++@@+++++++++++++++++++++@@@+++++++++++++++@@@++@@++@@@++@@@+++@@@+++@@@@++@@@@++@@@++@@@+++++++++++++++++++++@@++++++++++.......",
".......++++++++++@@+++++++++++++++++++++@@@+++++++++++++++@@@++@@++@@@+@@@+++++@@@++@@@++++@@@+@@@++++@@@++++++++++++++++++++@@++++++++++.......",
".......++++++++++@@+++++++++++++++++++++@@@+++++++++++++++@@@+++@@+@@@+@@@+++++@@@++@@@++++@@@+@@@@@@@@@@++++++++++++++++++++@@++++++++++.......",
".......++++++++++@@+++++++++++++++++++++@@@+++++++++++++++@@@+++@@+@@@+@@@+++++@@@++@@@++++@@@+@@@@@@@@@@++++++++++++++++++++@@++++++++++.......",
".......++++++++++@@+++++++++++++++++++++@@@+++++++++++++++@@@++++@@@@@+@@@+++++@@@++@@@++++@@@+@@@+++++++++++++++++++++++++++@@++++++++++.......",
".......++++++++++@@+++++++++++++++++++++@@@+++++++++++++++@@@++++@@@@@++@@@+++@@@+++@@@@++@@@@++@@@++++@+++++++++++++++++++++@@++++++++++.......",
".......++++++++++@@+++++++++++++++++++++@@@+++++++++++++++@@@+++++@@@@++@@@@@@@@@++++@@@@@@@@@++@@@@@@@@+++++++++++++++++++++@@++++++++++.......",
".......++++++++++@@+++++++++++++++++++++@@@+++++++++++++++@@@+++++@@@@++++@@@@@+++++++@@@@++@@++++@@@@@++++++++++++++++++++++@@++++++++++.......",
".......++++++++++@@++++++++++++++++++++++++++++++++++++++++++++++++++++++++++++++++++++++++++++++++++++++++++++++++++++++++++@@++++++++++.......",
".......++++++++++@@++++++++++++++++++++++++++++++++++++++++++++++++++++++++++++++++++++++++++++++++++++++++++++++++++++++++++@@++++++++++.......",
".......++++++++++@@++++++++++++++++++++++++++++@@@@@@@@@@++++++++++++++++++++++++++++++++++++++++++++++++++++++++++++++++++++@@++++++++++.......",
".......++++++++++@@++++++++++++++++++++++++++++++++++++++++++++++++++++++++++++++++++++++++++++++++++++++++++++++++++++++++++@@++++++++++.......",
".......++++++++++@@++++++++++++++++++++++++++++++++++++++++++++++++++++++++++++++++++++++++++++++++++++++++++++++++++++++++++@@++++++++++.......",
".......++++++++++@@++++++++++++++++++++++++++++++++++++++++++++++++++++++++++++++++++++++++++++++++++++++++++++++++++++++++++@@++++++++++.......",
".......++++++++++@@++++++++++++++++++++++++++++++++++++++++++++++++++++++++++++++++++++++++++++++++++++++++++++++++++++++++++@@++++++++++.......",
".......++++++++++@@++++++++++++++++++++++++++++++++++++++++++++++++++++++++++++++++++++++++++++++++++++++++++++++++++++++++++@@++++++++++.......",
".......++++++++++@@++++++++++++++++++++++++++++++++++++++++++++++++++++++++++++++++++++++++++++++++++++++++++++++++++++++++++@@++++++++++.......",
".......++++++++++@@++++++++++++++++++++++++++++++++++++++++++++++++++++++++++++++++++++++++++++++++++++++++++++++++++++++++++@@++++++++++.......",
".......++++++++++@@@@@@@@@@@@@@@@@@@@@@@@@@@@@@@@@@@@@@@@@@@@@@@@@@@@@@@@@@@@@@@@@@@@@@@@@@@@@@@@@@@@@@@@@@@@@@@@@@@@@@@@@@@@@@++++++++++.......",
".......++++++++++@@@@@@@@@@@@@@@@@@@@@@@@@@@@@@@@@@@@@@@@@@@@@@@@@@@@@@@@@@@@@@@@@@@@@@@@@@@@@@@@@@@@@@@@@@@@@@@@@@@@@@@@@@@@@@++++++++++.......",
".......+++++++++++++++++++++++++++++++++++++++++++++++++++++++++++...........................++++++++++++++++++++++++++++++++++++++++++++.......",
".......+++++++++++++++++++++++++++++++++++++++++++++++++++++++++++............................+++++++++++++++++++++++++++++++++++++++++++.......",
".......+++++++++++++++++++++++++++++++++++++++++++++++++++++++++++............................+++++++++++++++++++++++++++++++++++++++++++.......",
".......++++++++++++++++++++++++++++++++++++++++++++++++++++++++++++............................++++++++++++++++++++++++++++++++++++++++++.......",
".......++++++++++++++++++++++++++++++++++++++++++++++++++++++++++++............................++++++++++++++++++++++++++++++++++++++++++.......",
".......++++++++++++++++++++++++++++++++++++++++++++++++++++++++++++............................++++++++++++++++++++++++++++++++++++++++++.......",
".......+++++++++++++++++++++++++++++++++++++++++++++++++++++++++++++............................+++++++++++++++++++++++++++++++++++++++++.......",
".......+++++++++++++++++++++++++++++++++++++++++++++++++++++++++++++............................+++++++++++++++++++++++++++++++++++++++++.......",
".......++++++++++++++++++++++++++++++++++++++++++++++++++++++++++++++...........................+++++++++++++++++++++++++++++++++++++++++.......",
".......++++++++++++++++++++++++++++++++++++++++++++++++++++++++++++++............................++++++++++++++++++++++++++++++++++++++++.......",
".......++++++++++++++++++++++++++++++++++++++++++++++++++++++++++++++............................++++++++++++++++++++++++++++++++++++++++.......",
"................................................................................................................................................",
"................................................................................................................................................",
"................................................................................................................................................",
"................................................................................................................................................",
"................................................................................................................................................",
"................................................................................................................................................",
"................................................................................................................................................"};
