/* XPM */
static char * TC_Pointer_xpm[] = {
"144 74 5 1",
" 	c None",
".	c #FFFFFF",
"+	c #FFFF00",
"@	c #000000",
"#	c #FFFF90",
"................................................................................................................................................",
"................................................................................................................................................",
"................................................................................................................................................",
"................................................................................................................................................",
"................................................................................................................................................",
"................................................................................................................................................",
"................................................................................................................................................",
"......+++++++++++++++++++++++++++++++++++++++++............................+++++++++++++++++++++++++++++++++++++++++++++++++++++++++++++........",
"......+++++++++++++++++++++++++++++++++++++++++............................+++++++++++++++++++++++++++++++++++++++++++++++++++++++++++++........",
"......++++++++++++++++++++++++++++++++++++++++++...........................+++++++++++++++++++++++++++++++++++++++++++++++++++++++++++++........",
"......++++++++++++++++++++++++++++++++++++++++++............................++++++++++++++++++++++++++++++++++++++++++++++++++++++++++++........",
"......++++++++++++++++++++++++++++++++++++++++++............................++++++++++++++++++++++++++++++++++++++++++++++++++++++++++++........",
"......+++++++++++++++++++++++++++++++++++++++++++............................+++++++++++++++++++++++++++++++++++++++++++++++++++++++++++........",
"......+++++++++++++++++++++++++++++++++++++++++++............................+++++++++++++++++++++++++++++++++++++++++++++++++++++++++++........",
"......+++++++++++++++++++++++++++++++++++++++++++............................+++++++++++++++++++++++++++++++++++++++++++++++++++++++++++........",
"......++++++++++++++++++++++++++++++++++++++++++++............................++++++++++++++++++++++++++++++++++++++++++++++++++++++++++........",
"......++++++++++++++++++++++++++++++++++++++++++++............................++++++++++++++++++++++++++++++++++++++++++++++++++++++++++........",
"......+++++++++++++++++++++++++++++++++++++++++++++...........................++++++++++++++++++++++++++++++++++++++++++++++++++++++++++........",
"......++++++++++@@@@@@@@@@@@@@@@@@@@@@@@@@@@@@@@@@@@@@@@@@@@@@@@@@@@@@@@@@@@@@@@@@@@@@@@@@@@@@@@@@@@@@@@@@@@@@@@@@@@@@@@@@@@@@++++++++++........",
"......++++++++++@@@@@@@@@@@@@@@@@@@@@@@@@@@@@@@@@@@@@@@@@@@@@@@@@@@@@@@@@@@@@@@@@@@@@@@@@@@@@@@@@@@@@@@@@@@@@@@@@@@@@@@@@@@@@@++++++++++........",
"......++++++++++@@##########################################################################################################@@++++++++++........",
"......++++++++++@@##########################################################################################################@@++++++++++........",
"......++++++++++@@##########################################################################################################@@++++++++++........",
"......++++++++++@@##########################################################################################################@@++++++++++........",
"......++++++++++@@##########################################################################################################@@++++++++++........",
"......++++++++++@@##########################################################################################################@@++++++++++........",
"......++++++++++@@##########################################################################################################@@++++++++++........",
"......++++++++++@@##########################################################################################################@@++++++++++........",
"......++++++++++@@##########################################################################################################@@++++++++++........",
"......++++++++++@@##########################################################################################################@@++++++++++........",
"......++++++++++@@############################################################@@############################################@@++++++++++........",
"......++++++++++@@############@@@@@@@@@#####@@@@###########@@@@@##############@@############################################@@++++++++++........",
"......++++++++++@@############@@@@@@@@@###@@@@@@@##########@@@@@@@############################@@############################@@++++++++++........",
"......++++++++++@@###############@@######@@@###############@@###@@############################@@############################@@++++++++++........",
"......++++++++++@@###############@@#####@@@################@@###@@###@@@@@####@@###@@#@@@@##@@@@@@###@@@@####@@#@@##########@@++++++++++........",
"......++++++++++@@###############@@#####@@#################@@###@@##@@@@@@@###@@###@@@@@@@@#@@@@@@##@@@@@@###@@@@@##########@@++++++++++........",
"......++++++++++@@###############@@#####@@#################@@@@@@##@@@###@@@##@@###@@@###@@###@@###@@####@@##@@@############@@++++++++++........",
"......++++++++++@@###############@@#####@@#################@@@@@###@@#####@@##@@###@@####@@###@@###@@@@@@@@##@@#############@@++++++++++........",
"......++++++++++@@###############@@#####@@#################@@######@@#####@@##@@###@@####@@###@@###@@@@@@@@##@@#############@@++++++++++........",
"......++++++++++@@###############@@#####@@@################@@######@@#####@@##@@###@@####@@###@@###@@########@@#############@@++++++++++........",
"......++++++++++@@###############@@######@@@###############@@######@@@###@@@##@@###@@####@@###@@###@@@#######@@#############@@++++++++++........",
"......++++++++++@@###############@@#######@@@@@@@##########@@#######@@@@@@@###@@###@@####@@###@@@@##@@@@@@@##@@#############@@++++++++++........",
"......++++++++++@@###############@@########@@@@@@##########@@########@@@@@####@@###@@####@@####@@@###@@@@@###@@#############@@++++++++++........",
"......++++++++++@@##########################################################################################################@@++++++++++........",
"......++++++++++@@###############################@@@@@@@@@##################################################################@@++++++++++........",
"......++++++++++@@##########################################################################################################@@++++++++++........",
"......++++++++++@@##########################################################################################################@@++++++++++........",
"......++++++++++@@##########################################################################################################@@++++++++++........",
"......++++++++++@@##########################################################################################################@@++++++++++........",
"......++++++++++@@##########################################################################################################@@++++++++++........",
"......++++++++++@@##########################################################################################################@@++++++++++........",
"......++++++++++@@##########################################################################################################@@++++++++++........",
"......++++++++++@@##########################################################################################################@@++++++++++........",
"......++++++++++@@##########################################################################################################@@++++++++++........",
"......++++++++++@@@@@@@@@@@@@@@@@@@@@@@@@@@@@@@@@@@@@@@@@@@@@@@@@@@@@@@@@@@@@@@@@@@@@@@@@@@@@@@@@@@@@@@@@@@@@@@@@@@@@@@@@@@@@@++++++++++........",
"......++++++++++@@@@@@@@@@@@@@@@@@@@@@@@@@@@@@@@@@@@@@@@@@@@@@@@@@@@@@@@@@@@@@@@@@@@@@@@@@@@@@@@@@@@@@@@@@@@@@@@@@@@@@@@@@@@@@++++++++++........",
"......+++++++++++++++++++++++++++++++++++++++++++++++++++++++++++............................+++++++++++++++++++++++++++++++++++++++++++........",
"......++++++++++++++++++++++++++++++++++++++++++++++++++++++++++++...........................+++++++++++++++++++++++++++++++++++++++++++........",
"......++++++++++++++++++++++++++++++++++++++++++++++++++++++++++++...........................+++++++++++++++++++++++++++++++++++++++++++........",
"......+++++++++++++++++++++++++++++++++++++++++++++++++++++++++++++...........................++++++++++++++++++++++++++++++++++++++++++........",
"......+++++++++++++++++++++++++++++++++++++++++++++++++++++++++++++...........................++++++++++++++++++++++++++++++++++++++++++........",
"......+++++++++++++++++++++++++++++++++++++++++++++++++++++++++++++...........................++++++++++++++++++++++++++++++++++++++++++........",
"......++++++++++++++++++++++++++++++++++++++++++++++++++++++++++++++...........................+++++++++++++++++++++++++++++++++++++++++........",
"......++++++++++++++++++++++++++++++++++++++++++++++++++++++++++++++...........................+++++++++++++++++++++++++++++++++++++++++........",
"......++++++++++++++++++++++++++++++++++++++++++++++++++++++++++++++............................++++++++++++++++++++++++++++++++++++++++........",
"......+++++++++++++++++++++++++++++++++++++++++++++++++++++++++++++++...........................++++++++++++++++++++++++++++++++++++++++........",
"......+++++++++++++++++++++++++++++++++++++++++++++++++++++++++++++++...........................++++++++++++++++++++++++++++++++++++++++........",
"................................................................................................................................................",
"................................................................................................................................................",
"................................................................................................................................................",
"................................................................................................................................................",
"................................................................................................................................................",
"................................................................................................................................................",
"................................................................................................................................................"};
