/* XPM */
static char * TC_Record_xpm[] = {
"144 74 5 1",
" 	c None",
".	c #FFFFFF",
"+	c #FFFF00",
"@	c #000000",
"#	c #FF90FF",
"................................................................................................................................................",
"................................................................................................................................................",
"................................................................................................................................................",
"................................................................................................................................................",
"................................................................................................................................................",
"................................................................................................................................................",
"................................................................................................................................................",
".......+++++++++++++++++++++++++++++++++++++++++............................+++++++++++++++++++++++++++++++++++++++++++++++++++++++++++++.......",
".......+++++++++++++++++++++++++++++++++++++++++............................+++++++++++++++++++++++++++++++++++++++++++++++++++++++++++++.......",
".......++++++++++++++++++++++++++++++++++++++++++...........................+++++++++++++++++++++++++++++++++++++++++++++++++++++++++++++.......",
".......++++++++++++++++++++++++++++++++++++++++++............................++++++++++++++++++++++++++++++++++++++++++++++++++++++++++++.......",
".......++++++++++++++++++++++++++++++++++++++++++............................++++++++++++++++++++++++++++++++++++++++++++++++++++++++++++.......",
".......+++++++++++++++++++++++++++++++++++++++++++............................+++++++++++++++++++++++++++++++++++++++++++++++++++++++++++.......",
".......+++++++++++++++++++++++++++++++++++++++++++............................+++++++++++++++++++++++++++++++++++++++++++++++++++++++++++.......",
".......+++++++++++++++++++++++++++++++++++++++++++............................+++++++++++++++++++++++++++++++++++++++++++++++++++++++++++.......",
".......++++++++++++++++++++++++++++++++++++++++++++............................++++++++++++++++++++++++++++++++++++++++++++++++++++++++++.......",
".......++++++++++++++++++++++++++++++++++++++++++++............................++++++++++++++++++++++++++++++++++++++++++++++++++++++++++.......",
".......+++++++++++++++++++++++++++++++++++++++++++++...........................++++++++++++++++++++++++++++++++++++++++++++++++++++++++++.......",
".......++++++++++@@@@@@@@@@@@@@@@@@@@@@@@@@@@@@@@@@@@@@@@@@@@@@@@@@@@@@@@@@@@@@@@@@@@@@@@@@@@@@@@@@@@@@@@@@@@@@@@@@@@@@@@@@@@@@++++++++++.......",
".......++++++++++@@@@@@@@@@@@@@@@@@@@@@@@@@@@@@@@@@@@@@@@@@@@@@@@@@@@@@@@@@@@@@@@@@@@@@@@@@@@@@@@@@@@@@@@@@@@@@@@@@@@@@@@@@@@@@++++++++++.......",
".......++++++++++@@##########################################################################################################@@++++++++++.......",
".......++++++++++@@##########################################################################################################@@++++++++++.......",
".......++++++++++@@##########################################################################################################@@++++++++++.......",
".......++++++++++@@##########################################################################################################@@++++++++++.......",
".......++++++++++@@##########################################################################################################@@++++++++++.......",
".......++++++++++@@##########################################################################################################@@++++++++++.......",
".......++++++++++@@##########################################################################################################@@++++++++++.......",
".......++++++++++@@##########################################################################################################@@++++++++++.......",
".......++++++++++@@##########################################################################################################@@++++++++++.......",
".......++++++++++@@##########################################################################################################@@++++++++++.......",
".......++++++++++@@#############################################################################################@@###########@@++++++++++.......",
".......++++++++++@@##############@@@@@@@@@#####@@@@###########@@@@@@############################################@@###########@@++++++++++.......",
".......++++++++++@@##############@@@@@@@@@###@@@@@@@##########@@@@@@@@##########################################@@###########@@++++++++++.......",
".......++++++++++@@#################@@######@@@###############@@####@@##########################################@@###########@@++++++++++.......",
".......++++++++++@@#################@@#####@@@################@@####@@###@@@@#####@@@@####@@@@@####@@#@@####@@@#@@###########@@++++++++++.......",
".......++++++++++@@#################@@#####@@#################@@###@@@##@@@@@@###@@@@@###@@@@@@@###@@@@@###@@@@@@@###########@@++++++++++.......",
".......++++++++++@@#################@@#####@@#################@@@@@@@##@@####@@#@@@#####@@@###@@@##@@@####@@@##@@@###########@@++++++++++.......",
".......++++++++++@@#################@@#####@@#################@@@@@@@##@@@@@@@@#@@######@@#####@@##@@#####@@####@@###########@@++++++++++.......",
".......++++++++++@@#################@@#####@@#################@@##@@@##@@@@@@@@#@@######@@#####@@##@@#####@@####@@###########@@++++++++++.......",
".......++++++++++@@#################@@#####@@@################@@###@@##@@#######@@######@@#####@@##@@#####@@####@@###########@@++++++++++.......",
".......++++++++++@@#################@@######@@@###############@@###@@@#@@@######@@@#####@@@###@@@##@@#####@@@##@@@###########@@++++++++++.......",
".......++++++++++@@#################@@#######@@@@@@@##########@@###@@@##@@@@@@@##@@@@@@##@@@@@@@###@@######@@@@@@@###########@@++++++++++.......",
".......++++++++++@@#################@@########@@@@@@##########@@####@@@##@@@@@####@@@@@###@@@@@####@@#######@@@#@@###########@@++++++++++.......",
".......++++++++++@@##########################################################################################################@@++++++++++.......",
".......++++++++++@@#################################@@@@@@@@@################################################################@@++++++++++.......",
".......++++++++++@@##########################################################################################################@@++++++++++.......",
".......++++++++++@@##########################################################################################################@@++++++++++.......",
".......++++++++++@@##########################################################################################################@@++++++++++.......",
".......++++++++++@@##########################################################################################################@@++++++++++.......",
".......++++++++++@@##########################################################################################################@@++++++++++.......",
".......++++++++++@@##########################################################################################################@@++++++++++.......",
".......++++++++++@@##########################################################################################################@@++++++++++.......",
".......++++++++++@@##########################################################################################################@@++++++++++.......",
".......++++++++++@@##########################################################################################################@@++++++++++.......",
".......++++++++++@@@@@@@@@@@@@@@@@@@@@@@@@@@@@@@@@@@@@@@@@@@@@@@@@@@@@@@@@@@@@@@@@@@@@@@@@@@@@@@@@@@@@@@@@@@@@@@@@@@@@@@@@@@@@@++++++++++.......",
".......++++++++++@@@@@@@@@@@@@@@@@@@@@@@@@@@@@@@@@@@@@@@@@@@@@@@@@@@@@@@@@@@@@@@@@@@@@@@@@@@@@@@@@@@@@@@@@@@@@@@@@@@@@@@@@@@@@@++++++++++.......",
".......++++++++++++++++++++++++++++++++++++++++++++++++++++++++++++...........................+++++++++++++++++++++++++++++++++++++++++++.......",
".......++++++++++++++++++++++++++++++++++++++++++++++++++++++++++++...........................+++++++++++++++++++++++++++++++++++++++++++.......",
".......+++++++++++++++++++++++++++++++++++++++++++++++++++++++++++++...........................++++++++++++++++++++++++++++++++++++++++++.......",
".......+++++++++++++++++++++++++++++++++++++++++++++++++++++++++++++...........................++++++++++++++++++++++++++++++++++++++++++.......",
".......+++++++++++++++++++++++++++++++++++++++++++++++++++++++++++++...........................++++++++++++++++++++++++++++++++++++++++++.......",
".......++++++++++++++++++++++++++++++++++++++++++++++++++++++++++++++...........................+++++++++++++++++++++++++++++++++++++++++.......",
".......++++++++++++++++++++++++++++++++++++++++++++++++++++++++++++++...........................+++++++++++++++++++++++++++++++++++++++++.......",
".......++++++++++++++++++++++++++++++++++++++++++++++++++++++++++++++............................++++++++++++++++++++++++++++++++++++++++.......",
".......+++++++++++++++++++++++++++++++++++++++++++++++++++++++++++++++...........................++++++++++++++++++++++++++++++++++++++++.......",
".......+++++++++++++++++++++++++++++++++++++++++++++++++++++++++++++++...........................++++++++++++++++++++++++++++++++++++++++.......",
".......++++++++++++++++++++++++++++++++++++++++++++++++++++++++++++++++...........................+++++++++++++++++++++++++++++++++++++++.......",
"................................................................................................................................................",
"................................................................................................................................................",
"................................................................................................................................................",
"................................................................................................................................................",
"................................................................................................................................................",
"................................................................................................................................................",
"................................................................................................................................................"};
